<svg width="24" height="24" viewBox="0 0 24 24" fill="none" xmlns="http://www.w3.org/2000/svg">
<rect width="24" height="24" rx="12" fill="#0054EB" fill-opacity="0.15"/>
<path d="M11.9231 12.6346H8.07692C7.91346 12.6346 7.77647 12.5738 7.66596 12.4521C7.55532 12.3304 7.5 12.1796 7.5 11.9998C7.5 11.8198 7.55532 11.6692 7.66596 11.5477C7.77647 11.4262 7.91346 11.3654 8.07692 11.3654H11.9231V7.13462C11.9231 6.95481 11.9784 6.80412 12.089 6.68256C12.1997 6.56085 12.3367 6.5 12.5002 6.5C12.6638 6.5 12.8008 6.56085 12.9112 6.68256C13.0217 6.80412 13.0769 6.95481 13.0769 7.13462V11.3654H16.9231C17.0865 11.3654 17.2235 11.4262 17.334 11.5479C17.4447 11.6696 17.5 11.8204 17.5 12.0002C17.5 12.1802 17.4447 12.3308 17.334 12.4523C17.2235 12.5738 17.0865 12.6346 16.9231 12.6346H13.0769V16.8654C13.0769 17.0452 13.0216 17.1959 12.911 17.3174C12.8003 17.4391 12.6633 17.5 12.4998 17.5C12.3362 17.5 12.1992 17.4391 12.0888 17.3174C11.9783 17.1959 11.9231 17.0452 11.9231 16.8654V12.6346Z" fill="#0054EB"/>
</svg>
