<svg width="24" height="24" viewBox="0 0 24 24" fill="none" xmlns="http://www.w3.org/2000/svg">
<rect width="24" height="24" rx="12" fill="#C6FCE4"/>
<path d="M10.2384 12.55V14.2C10.2384 14.3561 10.2887 14.4867 10.3895 14.592C10.4903 14.6973 10.6155 14.75 10.7649 14.75C10.9143 14.75 11.0393 14.6973 11.1401 14.592C11.2409 14.4867 11.2913 14.3561 11.2913 14.2V12.55H12.8708C13.0202 12.55 13.1453 12.4973 13.246 12.392C13.3469 12.2867 13.3973 12.1561 13.3973 12C13.3973 11.8439 13.3469 11.7133 13.246 11.608C13.1453 11.5027 13.0202 11.45 12.8708 11.45H11.2913V9.8C11.2913 9.64392 11.2409 9.51327 11.1401 9.40803C11.0393 9.30268 10.9143 9.25 10.7649 9.25C10.6155 9.25 10.4903 9.30268 10.3895 9.40803C10.2887 9.51327 10.2384 9.64392 10.2384 9.8V11.45H8.65892C8.50951 11.45 8.38438 11.5027 8.28353 11.608C8.1828 11.7133 8.13243 11.8439 8.13243 12C8.13243 12.1561 8.1828 12.2867 8.28353 12.392C8.38438 12.4973 8.50951 12.55 8.65892 12.55H10.2384ZM6.76883 17.5C6.41433 17.5 6.11423 17.3717 5.86854 17.115C5.62285 16.8583 5.5 16.5448 5.5 16.1743V7.82568C5.5 7.45523 5.62285 7.14167 5.86854 6.885C6.11423 6.62833 6.41433 6.5 6.76883 6.5H14.7607C15.1152 6.5 15.4153 6.62833 15.661 6.885C15.9067 7.14167 16.0295 7.45523 16.0295 7.82568V11.1821L17.9574 9.16823C18.0609 9.06007 18.1772 9.03306 18.3063 9.0872C18.4354 9.14122 18.5 9.24438 18.5 9.39667V14.6033C18.5 14.7556 18.4354 14.8588 18.3063 14.9128C18.1772 14.9669 18.0609 14.9399 17.9574 14.8318L16.0295 12.8178V16.1743C16.0295 16.5448 15.9067 16.8583 15.661 17.115C15.4153 17.3717 15.1152 17.5 14.7607 17.5H6.76883ZM6.76883 16.4H14.7607C14.8237 16.4 14.8754 16.3789 14.9159 16.3366C14.9565 16.2943 14.9768 16.2402 14.9768 16.1743V7.82568C14.9768 7.75981 14.9565 7.70572 14.9159 7.66343C14.8754 7.62114 14.8237 7.6 14.7607 7.6H6.76883C6.70589 7.6 6.65417 7.62114 6.61369 7.66343C6.57321 7.70572 6.55297 7.75981 6.55297 7.82568V16.1743C6.55297 16.2402 6.57321 16.2943 6.61369 16.3366C6.65417 16.3789 6.70589 16.4 6.76883 16.4Z" fill="#009965"/>
</svg>
