<svg width="12" height="12" viewBox="0 0 12 12" fill="none" xmlns="http://www.w3.org/2000/svg">
<path d="M5.10363 7.35553L3.63647 5.88821C3.549 5.80084 3.43905 5.75611 3.30663 5.754C3.17432 5.752 3.06237 5.79674 2.97079 5.88821C2.87932 5.97979 2.83358 6.09074 2.83358 6.22105C2.83358 6.35137 2.87932 6.46232 2.97079 6.55389L4.704 8.2871C4.81821 8.40121 4.95142 8.45826 5.10363 8.45826C5.25584 8.45826 5.38905 8.40121 5.50326 8.2871L9.01705 4.77332C9.10442 4.68584 9.14916 4.57589 9.15126 4.44347C9.15326 4.31116 9.10853 4.19921 9.01705 4.10763C8.92547 4.01616 8.81453 3.97042 8.68421 3.97042C8.55389 3.97042 8.44295 4.01616 8.35137 4.10763L5.10363 7.35553ZM6.00111 12C5.17121 12 4.39116 11.8425 3.66095 11.5276C2.93074 11.2126 2.29558 10.7852 1.75547 10.2453C1.21537 9.70542 0.787737 9.07053 0.472579 8.34063C0.157526 7.61074 0 6.83089 0 6.00111C0 5.17121 0.157474 4.39116 0.472421 3.66095C0.787368 2.93074 1.21479 2.29558 1.75468 1.75547C2.29458 1.21537 2.92947 0.787737 3.65937 0.472579C4.38926 0.157526 5.16911 0 5.99889 0C6.82879 0 7.60884 0.157473 8.33905 0.472421C9.06926 0.787368 9.70442 1.21479 10.2445 1.75468C10.7846 2.29458 11.2123 2.92947 11.5274 3.65937C11.8425 4.38926 12 5.16911 12 5.99889C12 6.82879 11.8425 7.60884 11.5276 8.33905C11.2126 9.06926 10.7852 9.70442 10.2453 10.2445C9.70542 10.7846 9.07053 11.2123 8.34063 11.5274C7.61074 11.8425 6.83089 12 6.00111 12Z" fill="#0054EB"/>
</svg>
