<svg width="24" height="24" viewBox="0 0 24 24" fill="none" xmlns="http://www.w3.org/2000/svg">
<path d="M2.36523 19.0569V4.59517C2.36523 4.17351 2.51298 3.81492 2.80848 3.51942C3.10398 3.22392 3.46257 3.07617 3.88423 3.07617H10.346C10.7677 3.07617 11.1262 3.22392 11.4217 3.51942C11.7172 3.81492 11.865 4.17351 11.865 4.59517V7.07617H20.1152C20.5369 7.07617 20.8955 7.22392 21.191 7.51942C21.4865 7.81492 21.6342 8.17351 21.6342 8.59517V19.0569C21.6342 19.4786 21.4865 19.8373 21.191 20.1329C20.8955 20.4284 20.5369 20.5762 20.1152 20.5762H3.88423C3.46257 20.5762 3.10398 20.4284 2.80848 20.1329C2.51298 19.8373 2.36523 19.4786 2.36523 19.0569ZM3.86498 19.0762H6.36523V16.5762H3.86498V19.0762ZM3.86498 15.0762H6.36523V12.5762H3.86498V15.0762ZM3.86498 11.0762H6.36523V8.57617H3.86498V11.0762ZM3.86498 7.07617H6.36523V4.57617H3.86498V7.07617ZM7.86498 19.0762H10.3652V16.5762H7.86498V19.0762ZM7.86498 15.0762H10.3652V12.5762H7.86498V15.0762ZM7.86498 11.0762H10.3652V8.57617H7.86498V11.0762ZM7.86498 7.07617H10.3652V4.57617H7.86498V7.07617ZM11.865 19.0762H20.1345V8.57617H11.865V11.0762H14.0575V12.5762H11.865V15.0762H14.0575V16.5762H11.865V19.0762ZM16.2497 12.5762V11.0762H17.7497V12.5762H16.2497ZM16.2497 16.5762V15.0762H17.7497V16.5762H16.2497Z" fill="#5F6368"/>
</svg>
