<svg width="15" height="15" viewBox="0 0 15 15" fill="none" xmlns="http://www.w3.org/2000/svg">
<path d="M9.18266 11.2498C8.7812 11.2498 8.44047 11.1098 8.16047 10.8298C7.88047 10.5497 7.74047 10.2089 7.74047 9.80742C7.74047 9.40596 7.88047 9.06523 8.16047 8.78523C8.44047 8.50523 8.7812 8.36523 9.18266 8.36523C9.58411 8.36523 9.9249 8.50523 10.205 8.78523C10.485 9.06523 10.625 9.40596 10.625 9.80742C10.625 10.2089 10.485 10.5497 10.205 10.8298C9.9249 11.1098 9.58411 11.2498 9.18266 11.2498ZM3.31734 13.4373C3.00161 13.4373 2.73438 13.3279 2.51562 13.1091C2.29688 12.8904 2.1875 12.6232 2.1875 12.3074V3.94211C2.1875 3.62638 2.29688 3.35914 2.51562 3.14039C2.73438 2.92164 3.00161 2.81227 3.31734 2.81227H4.18266V1.97086C4.18266 1.83388 4.22854 1.71951 4.32031 1.62773C4.41208 1.53607 4.52646 1.49023 4.66344 1.49023C4.80052 1.49023 4.9149 1.53607 5.00656 1.62773C5.09833 1.71951 5.14422 1.83388 5.14422 1.97086V2.81227H9.87984V1.95898C9.87984 1.82596 9.92469 1.71456 10.0144 1.62477C10.1042 1.53508 10.2156 1.49023 10.3486 1.49023C10.4816 1.49023 10.593 1.53508 10.6827 1.62477C10.7724 1.71456 10.8173 1.82596 10.8173 1.95898V2.81227H11.6827C11.9984 2.81227 12.2656 2.92164 12.4844 3.14039C12.7031 3.35914 12.8125 3.62638 12.8125 3.94211V12.3074C12.8125 12.6232 12.7031 12.8904 12.4844 13.1091C12.2656 13.3279 11.9984 13.4373 11.6827 13.4373H3.31734ZM3.31734 12.4998H11.6827C11.7308 12.4998 11.7748 12.4797 11.8148 12.4396C11.8549 12.3996 11.875 12.3555 11.875 12.3074V6.44211H3.125V12.3074C3.125 12.3555 3.14505 12.3996 3.18516 12.4396C3.22516 12.4797 3.26922 12.4998 3.31734 12.4998ZM3.125 5.50461H11.875V3.94211C11.875 3.89398 11.8549 3.84992 11.8148 3.80992C11.7748 3.76982 11.7308 3.74977 11.6827 3.74977H3.31734C3.26922 3.74977 3.22516 3.76982 3.18516 3.80992C3.14505 3.84992 3.125 3.89398 3.125 3.94211V5.50461Z" fill="#424242"/>
</svg>
