<svg width="24" height="24" viewBox="0 0 24 24" fill="none" xmlns="http://www.w3.org/2000/svg">
<path d="M18.25 13.4615C18.0375 13.4615 17.8593 13.3896 17.7155 13.2457C17.5718 13.1019 17.5 12.9238 17.5 12.7113C17.5 12.4986 17.5718 12.3205 17.7155 12.177C17.8593 12.0333 18.0375 11.9615 18.25 11.9615H20.9538C20.9064 11.7615 20.8331 11.5958 20.7337 11.4645C20.6342 11.333 20.4942 11.2211 20.3135 11.1288C19.8417 10.8659 19.333 10.673 18.7875 10.55C18.242 10.4268 17.6045 10.3652 16.875 10.3652C16.7468 10.3652 16.6177 10.3685 16.4875 10.375C16.3573 10.3813 16.2282 10.3909 16.1 10.4038C15.8872 10.4103 15.7115 10.3427 15.573 10.201C15.4345 10.0593 15.3652 9.88367 15.3652 9.674C15.3652 9.46433 15.4268 9.29283 15.55 9.1595C15.673 9.02633 15.8409 8.94625 16.0538 8.91925C16.1821 8.89625 16.319 8.8815 16.4645 8.875C16.61 8.86867 16.7468 8.8655 16.875 8.8655C17.7263 8.8655 18.5017 8.95075 19.201 9.12125C19.9003 9.29175 20.5673 9.54233 21.202 9.873C21.6288 10.1 21.9518 10.4138 22.171 10.8145C22.3903 11.215 22.5 11.6877 22.5 12.2327V12.5865C22.5 12.8345 22.4162 13.0423 22.2485 13.21C22.0807 13.3777 21.8728 13.4615 21.625 13.4615H18.25ZM16.8755 7.923C16.1252 7.923 15.4872 7.65942 14.9615 7.13225C14.4358 6.60492 14.173 5.96467 14.173 5.2115C14.173 4.45833 14.4357 3.81817 14.961 3.291C15.4862 2.76367 16.124 2.5 16.8745 2.5C17.6248 2.5 18.2628 2.76367 18.7885 3.291C19.3142 3.81817 19.577 4.45833 19.577 5.2115C19.577 5.96467 19.3143 6.60492 18.789 7.13225C18.2637 7.65942 17.6258 7.923 16.8755 7.923ZM16.8755 6.423C17.2162 6.423 17.5016 6.30717 17.7318 6.0755C17.9619 5.84367 18.077 5.5565 18.077 5.214C18.077 4.87133 17.9618 4.58333 17.7313 4.35C17.5007 4.11667 17.2152 4 16.8745 4C16.5338 4 16.2484 4.11592 16.0182 4.34775C15.7881 4.57942 15.673 4.86658 15.673 5.20925C15.673 5.55175 15.7882 5.83967 16.0188 6.073C16.2493 6.30633 16.5348 6.423 16.8755 6.423ZM2.375 13.4615C2.12717 13.4615 1.91933 13.3777 1.7515 13.21C1.58383 13.0423 1.5 12.8345 1.5 12.5865V12.2327C1.5 11.6877 1.60967 11.215 1.829 10.8145C2.04817 10.4138 2.37117 10.1 2.798 9.873C3.43267 9.54233 4.09967 9.29175 4.799 9.12125C5.49833 8.95075 6.27367 8.8655 7.125 8.8655C7.25317 8.8655 7.39 8.86867 7.5355 8.875C7.681 8.8815 7.81792 8.89625 7.94625 8.91925C8.15908 8.94625 8.327 9.02633 8.45 9.1595C8.57317 9.29283 8.63475 9.46433 8.63475 9.674C8.63475 9.88367 8.5655 10.0593 8.427 10.201C8.2885 10.3427 8.11283 10.4103 7.9 10.4038C7.77183 10.3909 7.64267 10.3813 7.5125 10.375C7.38233 10.3685 7.25317 10.3652 7.125 10.3652C6.3955 10.3652 5.758 10.4268 5.2125 10.55C4.667 10.673 4.15833 10.8659 3.6865 11.1288C3.50583 11.2211 3.36575 11.333 3.26625 11.4645C3.16692 11.5958 3.09358 11.7615 3.04625 11.9615H5.75C5.9625 11.9615 6.14067 12.0334 6.2845 12.1772C6.42817 12.3211 6.5 12.4993 6.5 12.7118C6.5 12.9244 6.42817 13.1025 6.2845 13.246C6.14067 13.3897 5.9625 13.4615 5.75 13.4615H2.375ZM7.1255 7.923C6.37517 7.923 5.73717 7.65942 5.2115 7.13225C4.68583 6.60492 4.423 5.96467 4.423 5.2115C4.423 4.45833 4.68567 3.81817 5.211 3.291C5.73633 2.76367 6.37417 2.5 7.1245 2.5C7.87483 2.5 8.51283 2.76367 9.0385 3.291C9.56417 3.81817 9.827 4.45833 9.827 5.2115C9.827 5.96467 9.56433 6.60492 9.039 7.13225C8.51383 7.65942 7.876 7.923 7.1255 7.923ZM7.1255 6.423C7.46617 6.423 7.75158 6.30717 7.98175 6.0755C8.21192 5.84367 8.327 5.5565 8.327 5.214C8.327 4.87133 8.21175 4.58333 7.98125 4.35C7.75075 4.11667 7.46517 4 7.1245 4C6.78383 4 6.49842 4.11592 6.26825 4.34775C6.03808 4.57942 5.923 4.86658 5.923 5.20925C5.923 5.55175 6.03825 5.83967 6.26875 6.073C6.49925 6.30633 6.78483 6.423 7.1255 6.423ZM12 16.5865C11.5205 16.5865 11.1138 16.4179 10.7797 16.0807C10.4458 15.7436 10.2788 15.3353 10.2788 14.8558V11.9135C10.2788 11.434 10.4458 11.0257 10.7797 10.6885C11.1138 10.3513 11.5205 10.1828 12 10.1828C12.4795 10.1828 12.8863 10.3513 13.2203 10.6885C13.5542 11.0257 13.7212 11.434 13.7212 11.9135V14.8558C13.7212 15.3353 13.5542 15.7436 13.2203 16.0807C12.8863 16.4179 12.4795 16.5865 12 16.5865ZM12.0005 21.5C11.8283 21.5 11.6858 21.4437 11.573 21.331C11.4602 21.2185 11.4038 21.0761 11.4038 20.9038V19.498C10.3526 19.3633 9.4555 18.9223 8.7125 18.175C7.9695 17.4275 7.53583 16.5454 7.4115 15.5288C7.38467 15.3468 7.43017 15.1891 7.548 15.0558C7.666 14.9224 7.81758 14.8558 8.00275 14.8558C8.14825 14.8558 8.27392 14.9019 8.37975 14.9943C8.48558 15.0866 8.55192 15.2083 8.57875 15.3595C8.72375 16.2327 9.11292 16.9488 9.74625 17.5078C10.3796 18.0668 11.1308 18.3462 12 18.3462C12.8692 18.3462 13.6204 18.0668 14.2538 17.5078C14.8871 16.9488 15.2762 16.2327 15.4212 15.3595C15.4482 15.2057 15.5161 15.0833 15.6248 14.9923C15.7332 14.9012 15.8622 14.8558 16.0115 14.8558C16.1943 14.8558 16.3445 14.9224 16.462 15.0558C16.5797 15.1891 16.625 15.3468 16.598 15.5288C16.4737 16.5454 16.0384 17.4275 15.2923 18.175C14.5461 18.9223 13.6474 19.3633 12.5963 19.498V20.9038C12.5963 21.0761 12.5399 21.2185 12.4272 21.331C12.3147 21.4437 12.1725 21.5 12.0005 21.5Z" fill="#5F6368"/>
</svg>
