<svg width="15" height="15" viewBox="0 0 15 15" fill="none" xmlns="http://www.w3.org/2000/svg">
<path d="M13.7537 5.15625C13.288 5.57318 13.2883 5.57342 13.2883 5.57342L13.284 5.56875L13.2642 5.54734C13.2459 5.52765 13.2173 5.49741 13.179 5.45813C13.1024 5.37953 12.9873 5.26499 12.8378 5.12648C12.5381 4.84888 12.1037 4.47811 11.5679 4.108C10.4843 3.35956 9.04765 2.65625 7.50366 2.65625C5.95966 2.65625 4.52298 3.35956 3.43945 4.108C2.90364 4.47811 2.46922 4.84888 2.16954 5.12648C2.02001 5.26499 1.90487 5.37953 1.82828 5.45813C1.79001 5.49741 1.76144 5.52765 1.74308 5.54734L1.7233 5.56875L1.71905 5.57342C1.71905 5.57342 1.71927 5.57318 1.25366 5.15625C0.788041 4.73932 0.788669 4.73862 0.788669 4.73862L0.789557 4.73763L0.792107 4.73481L0.800282 4.72582C0.80709 4.71836 0.816607 4.70801 0.828768 4.69497C0.853085 4.66889 0.887998 4.63198 0.932983 4.58581C1.02291 4.49352 1.15334 4.36392 1.32008 4.20946C1.65294 3.90112 2.13381 3.49064 2.72903 3.0795C3.90756 2.26544 5.59587 1.40625 7.50366 1.40625C9.41144 1.40625 11.0998 2.26544 12.2783 3.0795C12.8735 3.49064 13.3544 3.90112 13.6872 4.20946C13.854 4.36392 13.9844 4.49352 14.0743 4.58581C14.1193 4.63198 14.1542 4.66889 14.1785 4.69497C14.1907 4.70801 14.2002 4.71836 14.207 4.72582L14.2152 4.73481L14.2178 4.73763L14.219 4.73901C14.219 4.73901 14.2193 4.73932 13.7537 5.15625Z" fill="#939393"/>
<path d="M7.50269 10C6.81233 10 6.25269 9.44036 6.25269 8.75C6.25269 8.05964 6.81233 7.5 7.50269 7.5C8.19304 7.5 8.75269 8.05964 8.75269 8.75C8.75269 9.44036 8.19304 10 7.50269 10Z" fill="#939393"/>
<path fill-rule="evenodd" clip-rule="evenodd" d="M3.30732 5.68771C4.40427 4.72871 5.82948 3.90625 7.49902 3.90625C9.16856 3.90625 10.5938 4.72871 11.6907 5.68771C12.7902 6.64888 13.6022 7.78345 14.0559 8.49585L14.2178 8.75L14.0559 9.00415C13.6022 9.71655 12.7902 10.8511 11.6907 11.8123C10.5938 12.7713 9.16856 13.5938 7.49902 13.5938C5.82948 13.5938 4.40427 12.7713 3.30732 11.8123C2.20789 10.8511 1.3958 9.71655 0.942126 9.00415L0.780273 8.75L0.942126 8.49585C1.3958 7.78345 2.20789 6.64888 3.30732 5.68771ZM5.00269 8.75C5.00269 10.1307 6.12197 11.25 7.50269 11.25C8.8834 11.25 10.0027 10.1307 10.0027 8.75C10.0027 7.36929 8.8834 6.25 7.50269 6.25C6.12197 6.25 5.00269 7.36929 5.00269 8.75Z" fill="#939393"/>
</svg>
