<svg width="24" height="24" viewBox="0 0 24 24" fill="none" xmlns="http://www.w3.org/2000/svg">
<path d="M12.5977 11.6414C13.0232 11.1786 13.3379 10.6472 13.5419 10.0472C13.7457 9.44716 13.8477 8.82857 13.8477 8.19141C13.8477 7.55424 13.7457 6.93566 13.5419 6.33566C13.3379 5.73566 13.0232 5.20424 12.5977 4.74141C13.4758 4.84274 14.205 5.22191 14.7852 5.87891C15.3652 6.53607 15.6552 7.30691 15.6552 8.19141C15.6552 9.07607 15.3652 9.84691 14.7852 10.5039C14.205 11.1609 13.4758 11.5401 12.5977 11.6414ZM17.4609 19.3069C17.5866 19.0774 17.6824 18.8332 17.7484 18.5742C17.8146 18.3152 17.8477 18.053 17.8477 17.7877V16.9607C17.8477 16.4155 17.7367 15.8968 17.5149 15.4047C17.2931 14.9125 16.9783 14.4902 16.5707 14.1377C17.3373 14.3928 18.0431 14.7371 18.6879 15.1704C19.3327 15.6037 19.6552 16.2005 19.6552 16.9607V17.7877C19.6552 18.2093 19.5074 18.568 19.2119 18.8637C18.9164 19.1592 18.5578 19.3069 18.1362 19.3069H17.4609ZM19.6552 10.7492H18.4052C18.1927 10.7492 18.0146 10.6772 17.8709 10.5334C17.7271 10.3896 17.6552 10.2114 17.6552 9.99891C17.6552 9.78624 17.7271 9.60816 17.8709 9.46466C18.0146 9.32099 18.1927 9.24916 18.4052 9.24916H19.6552V7.99916C19.6552 7.78666 19.7271 7.60857 19.8709 7.46491C20.0147 7.32107 20.193 7.24916 20.4057 7.24916C20.6182 7.24916 20.7962 7.32107 20.9399 7.46491C21.0834 7.60857 21.1552 7.78666 21.1552 7.99916V9.24916H22.4052C22.6177 9.24916 22.7958 9.32107 22.9397 9.46491C23.0833 9.60874 23.1552 9.78691 23.1552 9.99941C23.1552 10.2121 23.0833 10.3902 22.9397 10.5337C22.7958 10.6773 22.6177 10.7492 22.4052 10.7492H21.1552V11.9992C21.1552 12.2117 21.0832 12.3897 20.9394 12.5334C20.7956 12.6772 20.6174 12.7492 20.4049 12.7492C20.1922 12.7492 20.0142 12.6772 19.8707 12.5334C19.727 12.3897 19.6552 12.2117 19.6552 11.9992V10.7492ZM8.34766 11.6914C7.38516 11.6914 6.56116 11.3487 5.87566 10.6634C5.19032 9.97791 4.84766 9.15391 4.84766 8.19141C4.84766 7.22891 5.19032 6.40499 5.87566 5.71966C6.56116 5.03416 7.38516 4.69141 8.34766 4.69141C9.31016 4.69141 10.1341 5.03416 10.8194 5.71966C11.5049 6.40499 11.8477 7.22891 11.8477 8.19141C11.8477 9.15391 11.5049 9.97791 10.8194 10.6634C10.1341 11.3487 9.31016 11.6914 8.34766 11.6914ZM0.847656 17.7877V17.0837C0.847656 16.594 0.980656 16.1405 1.24666 15.7232C1.51266 15.3058 1.86807 14.985 2.31291 14.7607C3.30141 14.2762 4.29857 13.9127 5.30441 13.6704C6.31007 13.4281 7.32449 13.3069 8.34766 13.3069C9.37066 13.3069 10.3851 13.4281 11.3909 13.6704C12.3966 13.9127 13.3937 14.2762 14.3822 14.7607C14.827 14.985 15.1824 15.3058 15.4484 15.7232C15.7146 16.1405 15.8477 16.594 15.8477 17.0837V17.7877C15.8477 18.2093 15.6999 18.568 15.4044 18.8637C15.1089 19.1592 14.7502 19.3069 14.3284 19.3069H2.36691C1.94507 19.3069 1.58641 19.1592 1.29091 18.8637C0.995406 18.568 0.847656 18.2093 0.847656 17.7877ZM8.34766 10.1914C8.89766 10.1914 9.36849 9.99557 9.76016 9.60391C10.1518 9.21224 10.3477 8.74141 10.3477 8.19141C10.3477 7.64141 10.1518 7.17057 9.76016 6.77891C9.36849 6.38724 8.89766 6.19141 8.34766 6.19141C7.79766 6.19141 7.32682 6.38724 6.93516 6.77891C6.54349 7.17057 6.34766 7.64141 6.34766 8.19141C6.34766 8.74141 6.54349 9.21224 6.93516 9.60391C7.32682 9.99557 7.79766 10.1914 8.34766 10.1914ZM2.34766 17.8069H14.3477V17.0837C14.3477 16.8812 14.289 16.6937 14.1717 16.5212C14.0543 16.3488 13.895 16.2082 13.6937 16.0992C12.8322 15.6748 11.9537 15.3533 11.0584 15.1347C10.1629 14.9162 9.25932 14.8069 8.34766 14.8069C7.43582 14.8069 6.53224 14.9162 5.63691 15.1347C4.74141 15.3533 3.86291 15.6748 3.00141 16.0992C2.80007 16.2082 2.64082 16.3488 2.52366 16.5212C2.40632 16.6937 2.34766 16.8812 2.34766 17.0837V17.8069Z" fill="#5F6368"/>
</svg>
