<svg width="16" height="16" viewBox="0 0 16 16" fill="none" xmlns="http://www.w3.org/2000/svg">
<g clip-path="url(#clip0_53_12053)">
<mask id="mask0_53_12053" style="mask-type:luminance" maskUnits="userSpaceOnUse" x="0" y="0" width="16" height="16">
<path d="M16 0H0V16H16V0Z" fill="white"/>
</mask>
<g mask="url(#mask0_53_12053)">
<path d="M1.55606 7.72114C1.55606 7.72114 1.07943 7.0264 1.77459 6.55019C2.46891 6.07398 2.94512 6.76871 2.94512 6.76871L5.15606 9.99313C5.23185 9.86598 5.31564 9.7405 5.40828 9.61671L2.33964 5.14135C2.33964 5.14135 1.86343 4.44703 2.55817 3.97082C3.25249 3.49419 3.7287 4.18892 3.7287 4.18892L6.61543 8.39819C6.7228 8.31019 6.83227 8.22261 6.94596 8.13629L3.59985 3.25629C3.59985 3.25629 3.12364 2.56198 3.81796 2.08577C4.51227 1.60914 4.98849 2.30387 4.98849 2.30387L8.33501 7.18345C8.45796 7.10766 8.57964 7.0424 8.70133 6.97377L5.57417 2.41292C5.57417 2.41292 5.09796 1.71861 5.7927 1.2424C6.48701 0.765766 6.96322 1.4605 6.96322 1.4605L10.2702 6.28282L10.535 6.66935L10.7729 7.01671C8.68954 8.44535 8.49122 11.1342 9.68154 12.8702C9.91985 13.2176 10.2668 12.9797 10.2668 12.9797C8.83817 10.8959 9.2748 8.5544 11.3586 7.12577L10.743 4.05124C10.743 4.05124 10.5135 3.24071 11.3236 3.01124C12.1337 2.78177 12.3632 3.59187 12.3632 3.59187L13.0727 5.69882C13.354 6.53419 13.6533 7.36661 14.0495 8.15356C15.1683 10.3767 14.5001 13.1401 12.3902 14.5868C10.0891 16.1645 6.94385 15.5784 5.36575 13.2773C5.28238 13.1552 5.21249 13.0361 5.14596 12.9169L5.12743 12.93L1.55606 7.72114Z" fill="#D99E82"/>
<path d="M14.7194 3.36914H15.5615C15.5606 2.59241 15.2517 1.84775 14.7025 1.29853C14.1532 0.749296 13.4086 0.440348 12.6318 0.439456V1.28156C13.1853 1.28223 13.7159 1.50239 14.1072 1.89374C14.4986 2.28509 14.7187 2.81569 14.7194 3.36914Z" fill="#EB9701"/>
<path d="M13.8952 5.47461H14.7373C14.7373 3.15293 12.8485 1.26408 10.5268 1.26408V2.10619C12.384 2.10619 13.8952 3.61735 13.8952 5.47461Z" fill="#EB9701"/>
<path d="M3.36914 15.5801V14.738C2.10598 14.738 1.26388 13.8959 1.26388 12.6327H0.421772C0.421772 14.3169 1.68493 15.5801 3.36914 15.5801Z" fill="#EB9701"/>
<path d="M5.47363 14.7559V13.9138C3.78942 13.9138 2.08753 12.2119 2.08753 10.5276H1.24542C1.24542 13.054 2.94732 14.7559 5.47363 14.7559Z" fill="#EB9701"/>
</g>
</g>
<defs>
<clipPath id="clip0_53_12053">
<rect width="16" height="16" fill="white" transform="matrix(-1 0 0 1 16 0)"/>
</clipPath>
</defs>
</svg>
