<svg width="24" height="24" viewBox="0 0 24 24" fill="none" xmlns="http://www.w3.org/2000/svg">
<path d="M9 8.5H15V6.5C15 5.66667 14.7083 4.95833 14.125 4.375C13.5417 3.79167 12.8333 3.5 12 3.5C11.1667 3.5 10.4583 3.79167 9.875 4.375C9.29167 4.95833 9 5.66667 9 6.5V8.5ZM6.30775 21.5C5.80258 21.5 5.375 21.325 5.025 20.975C4.675 20.625 4.5 20.1974 4.5 19.6923V10.3077C4.5 9.80258 4.675 9.375 5.025 9.025C5.375 8.675 5.80258 8.5 6.30775 8.5H7.5V6.5C7.5 5.25133 7.93783 4.18917 8.8135 3.3135C9.68917 2.43783 10.7513 2 12 2C13.2487 2 14.3108 2.43783 15.1865 3.3135C16.0622 4.18917 16.5 5.25133 16.5 6.5V8.5H17.6923C18.1974 8.5 18.625 8.675 18.975 9.025C19.325 9.375 19.5 9.80258 19.5 10.3077V10.5385C19.5 10.7885 19.4221 10.976 19.2663 11.101C19.1103 11.226 18.9388 11.2885 18.7517 11.2885C18.5648 11.2885 18.3927 11.226 18.2355 11.101C18.0785 10.976 18 10.7885 18 10.5385V10.3077C18 10.2179 17.9712 10.1442 17.9135 10.0865C17.8558 10.0288 17.7821 10 17.6923 10H6.30775C6.21792 10 6.14417 10.0288 6.0865 10.0865C6.02883 10.1442 6 10.2179 6 10.3077V19.6923C6 19.7821 6.02883 19.8558 6.0865 19.9135C6.14417 19.9712 6.21792 20 6.30775 20H11.5673C11.7798 20 11.9579 20.0719 12.1018 20.2157C12.2454 20.3596 12.3173 20.5378 12.3173 20.7502C12.3173 20.9629 12.2454 21.141 12.1018 21.2845C11.9579 21.4282 11.7798 21.5 11.5673 21.5H6.30775ZM6 12.8848V20V10V12.8848ZM17.8077 17.8077C18.2244 17.8077 18.5786 17.6619 18.8702 17.3702C19.1619 17.0786 19.3077 16.7244 19.3077 16.3077C19.3077 15.8911 19.1619 15.5369 18.8702 15.2452C18.5786 14.9536 18.2244 14.8077 17.8077 14.8077C17.3911 14.8077 17.0369 14.9536 16.7452 15.2452C16.4536 15.5369 16.3077 15.8911 16.3077 16.3077C16.3077 16.7244 16.4536 17.0786 16.7452 17.3702C17.0369 17.6619 17.3911 17.8077 17.8077 17.8077ZM17.8077 20.8078C18.3077 20.8078 18.7744 20.6911 19.2078 20.4578C19.6411 20.2244 19.9994 19.8994 20.2828 19.4827C19.8994 19.2494 19.4994 19.0786 19.0828 18.9703C18.6661 18.8619 18.2411 18.8078 17.8077 18.8078C17.3744 18.8078 16.9494 18.8619 16.5328 18.9703C16.1161 19.0786 15.7161 19.2494 15.3328 19.4827C15.6161 19.8994 15.9744 20.2244 16.4078 20.4578C16.8411 20.6911 17.3077 20.8078 17.8077 20.8078ZM17.8077 22.3078C16.5589 22.3078 15.4967 21.8699 14.6212 20.9943C13.7456 20.1186 13.3077 19.0564 13.3077 17.8077C13.3077 16.5589 13.7456 15.4968 14.6212 14.6213C15.4967 13.7456 16.5589 13.3077 17.8077 13.3077C19.0564 13.3077 20.1186 13.7456 20.9943 14.6213C21.8699 15.4968 22.3078 16.5589 22.3078 17.8077C22.3078 19.0564 21.8699 20.1186 20.9943 20.9943C20.1186 21.8699 19.0564 22.3078 17.8077 22.3078Z" fill="#CBCBCB"/>
</svg>
