<svg width="15" height="15" viewBox="0 0 15 15" fill="none" xmlns="http://www.w3.org/2000/svg">
<path d="M2.84258 12.1875C2.52695 12.1875 2.25977 12.0781 2.04102 11.8594C1.82227 11.6406 1.71289 11.3734 1.71289 11.0577V3.94234C1.71289 3.62661 1.82227 3.35938 2.04102 3.14062C2.25977 2.92188 2.52695 2.8125 2.84258 2.8125H9.95805C10.2737 2.8125 10.5409 2.92188 10.7596 3.14062C10.9784 3.35938 11.0877 3.62661 11.0877 3.94234V6.80297L12.8041 5.08656C12.8963 4.99437 12.9999 4.97135 13.1148 5.0175C13.2298 5.06354 13.2873 5.15146 13.2873 5.28125V9.71875C13.2873 9.84854 13.2298 9.93646 13.1148 9.9825C12.9999 10.0286 12.8963 10.0056 12.8041 9.91344L11.0877 8.19703V11.0577C11.0877 11.3734 10.9784 11.6406 10.7596 11.8594C10.5409 12.0781 10.2737 12.1875 9.95805 12.1875H2.84258Z" fill="#00AD68"/>
</svg>
