<svg width="18" height="18" viewBox="0 0 18 18" fill="none" xmlns="http://www.w3.org/2000/svg">
<path d="M4.73081 16.125C4.35681 16.125 4.03731 15.9926 3.77231 15.7277C3.50744 15.4627 3.375 15.1432 3.375 14.7692V7.73081C3.375 7.35681 3.50744 7.03731 3.77231 6.77231C4.03731 6.50744 4.35681 6.375 4.73081 6.375H5.625V4.875C5.625 3.9385 5.95338 3.14187 6.61013 2.48512C7.26688 1.82837 8.0635 1.5 9 1.5C9.9365 1.5 10.7331 1.82837 11.3899 2.48512C12.0466 3.14187 12.375 3.9385 12.375 4.875V6.375H13.2692C13.6432 6.375 13.9627 6.50744 14.2277 6.77231C14.4926 7.03731 14.625 7.35681 14.625 7.73081V14.7692C14.625 15.1432 14.4926 15.4627 14.2277 15.7277C13.9627 15.9926 13.6432 16.125 13.2692 16.125H4.73081ZM4.73081 15H13.2692C13.3366 15 13.3919 14.9784 13.4351 14.9351C13.4784 14.8919 13.5 14.8366 13.5 14.7692V7.73081C13.5 7.66344 13.4784 7.60813 13.4351 7.56488C13.3919 7.52163 13.3366 7.5 13.2692 7.5H4.73081C4.66344 7.5 4.60813 7.52163 4.56488 7.56488C4.52163 7.60813 4.5 7.66344 4.5 7.73081V14.7692C4.5 14.8366 4.52163 14.8919 4.56488 14.9351C4.60813 14.9784 4.66344 15 4.73081 15ZM9 12.5625C9.36438 12.5625 9.67425 12.4349 9.92963 12.1796C10.1849 11.9242 10.3125 11.6144 10.3125 11.25C10.3125 10.8856 10.1849 10.5758 9.92963 10.3204C9.67425 10.0651 9.36438 9.9375 9 9.9375C8.63563 9.9375 8.32575 10.0651 8.07038 10.3204C7.81513 10.5758 7.6875 10.8856 7.6875 11.25C7.6875 11.6144 7.81513 11.9242 8.07038 12.1796C8.32575 12.4349 8.63563 12.5625 9 12.5625ZM6.75 6.375H11.25V4.875C11.25 4.25 11.0313 3.71875 10.5938 3.28125C10.1563 2.84375 9.625 2.625 9 2.625C8.375 2.625 7.84375 2.84375 7.40625 3.28125C6.96875 3.71875 6.75 4.25 6.75 4.875V6.375Z" fill="#0054EB"/>
</svg>
