<svg width="11" height="11" viewBox="0 0 11 11" fill="none" xmlns="http://www.w3.org/2000/svg">
<path d="M4.55208 5.73958H0.59375C0.425521 5.73958 0.284538 5.68265 0.170802 5.56878C0.0569341 5.45491 0 5.31386 0 5.14564C0 4.97727 0.0569341 4.83629 0.170802 4.72269C0.284538 4.60895 0.425521 4.55208 0.59375 4.55208H4.55208V0.59375C4.55208 0.425521 4.60902 0.284538 4.72289 0.170802C4.83675 0.0569341 4.9778 0 5.14603 0C5.31439 0 5.45538 0.0569341 5.56898 0.170802C5.68272 0.284538 5.73958 0.425521 5.73958 0.59375V4.55208H9.69792C9.86615 4.55208 10.0071 4.60902 10.1209 4.72289C10.2347 4.83675 10.2917 4.9778 10.2917 5.14603C10.2917 5.31439 10.2347 5.45538 10.1209 5.56898C10.0071 5.68272 9.86615 5.73958 9.69792 5.73958H5.73958V9.69792C5.73958 9.86615 5.68265 10.0071 5.56878 10.1209C5.45491 10.2347 5.31386 10.2917 5.14564 10.2917C4.97727 10.2917 4.83629 10.2347 4.72269 10.1209C4.60895 10.0071 4.55208 9.86615 4.55208 9.69792V5.73958Z" fill="white"/>
</svg>
