<svg width="15" height="15" viewBox="0 0 15 15" fill="none" xmlns="http://www.w3.org/2000/svg">
<path d="M3.94234 13.4375C3.62661 13.4375 3.35938 13.3281 3.14062 13.1094C2.92188 12.8906 2.8125 12.6234 2.8125 12.3077V2.69234C2.8125 2.37661 2.92188 2.10938 3.14062 1.89062C3.35938 1.67188 3.62661 1.5625 3.94234 1.5625H8.43875C8.58938 1.5625 8.73422 1.59177 8.87328 1.65031C9.01224 1.70875 9.13302 1.78927 9.23563 1.89188L11.8581 4.51437C11.9607 4.61698 12.0413 4.73776 12.0997 4.87672C12.1582 5.01578 12.1875 5.16062 12.1875 5.31125V12.3077C12.1875 12.6234 12.0781 12.8906 11.8594 13.1094C11.6406 13.3281 11.3734 13.4375 11.0577 13.4375H3.94234ZM8.4375 4.7475C8.4375 4.90865 8.49141 5.04307 8.59922 5.15078C8.70693 5.25859 8.84135 5.3125 9.0025 5.3125H11.25L8.4375 2.5V4.7475ZM6.83406 9.54922L5.83891 8.55406C5.79245 8.5076 5.74177 8.47276 5.68687 8.44953C5.63198 8.4263 5.57552 8.41469 5.5175 8.41469C5.45937 8.41469 5.40026 8.4263 5.34016 8.44953C5.28005 8.47276 5.22677 8.5076 5.18031 8.55406C5.08333 8.65104 5.03484 8.76245 5.03484 8.88828C5.03484 9.01401 5.08333 9.12536 5.18031 9.22234L6.44828 10.5C6.50682 10.5584 6.56854 10.5997 6.63344 10.6238C6.69833 10.6478 6.76844 10.6598 6.84375 10.6598C6.91906 10.6598 6.98917 10.6478 7.05406 10.6238C7.11896 10.5997 7.18068 10.5584 7.23922 10.5L9.81969 7.91937C9.9126 7.82646 9.9601 7.71453 9.96219 7.58359C9.96417 7.45255 9.91667 7.33854 9.81969 7.24156C9.72271 7.14458 9.60974 7.09609 9.48078 7.09609C9.35182 7.09609 9.23885 7.14458 9.14188 7.24156L6.83406 9.54922Z" fill="#2E77D0"/>
</svg>
