<svg width="24" height="24" viewBox="0 0 24 24" fill="none" xmlns="http://www.w3.org/2000/svg">
<path d="M4.30775 19.5C3.80258 19.5 3.375 19.325 3.025 18.975C2.675 18.625 2.5 18.1974 2.5 17.6923V6.30775C2.5 5.80258 2.675 5.375 3.025 5.025C3.375 4.675 3.80258 4.5 4.30775 4.5H9.05C9.291 4.5 9.52275 4.54683 9.74525 4.6405C9.96758 4.734 10.1608 4.86283 10.325 5.027L11.798 6.5H19.6923C20.1974 6.5 20.625 6.675 20.975 7.025C21.325 7.375 21.5 7.80258 21.5 8.30775V17.6923C21.5 18.1974 21.325 18.625 20.975 18.975C20.625 19.325 20.1974 19.5 19.6923 19.5H4.30775ZM4.30775 18H19.6923C19.7821 18 19.8558 17.9712 19.9135 17.9135C19.9712 17.8558 20 17.7821 20 17.6923V8.30775C20 8.21792 19.9712 8.14417 19.9135 8.0865C19.8558 8.02883 19.7821 8 19.6923 8H11.1845L9.27125 6.0865C9.23908 6.0545 9.20542 6.03208 9.17025 6.01925C9.13492 6.00642 9.098 6 9.0595 6H4.30775C4.21792 6 4.14417 6.02883 4.0865 6.0865C4.02883 6.14417 4 6.21792 4 6.30775V17.6923C4 17.7821 4.02883 17.8558 4.0865 17.9135C4.14417 17.9712 4.21792 18 4.30775 18ZM7 15.75H13C13.2128 15.75 13.391 15.6782 13.5345 15.5345C13.6782 15.391 13.75 15.2128 13.75 15C13.75 14.7872 13.6782 14.609 13.5345 14.4655C13.391 14.3218 13.2128 14.25 13 14.25H7C6.78717 14.25 6.609 14.3218 6.4655 14.4655C6.32183 14.609 6.25 14.7872 6.25 15C6.25 15.2128 6.32183 15.391 6.4655 15.5345C6.609 15.6782 6.78717 15.75 7 15.75ZM7 11.75H17C17.2128 11.75 17.391 11.6782 17.5345 11.5345C17.6782 11.391 17.75 11.2128 17.75 11C17.75 10.7872 17.6782 10.609 17.5345 10.4655C17.391 10.3218 17.2128 10.25 17 10.25H7C6.78717 10.25 6.609 10.3218 6.4655 10.4655C6.32183 10.609 6.25 10.7872 6.25 11C6.25 11.2128 6.32183 11.391 6.4655 11.5345C6.609 11.6782 6.78717 11.75 7 11.75Z" fill="#5F6368"/>
</svg>
