<svg width="80" height="80" viewBox="0 0 80 80" fill="none" xmlns="http://www.w3.org/2000/svg">
<path d="M75 53.75V73.75H5V53.75H30.275C30.85 53.75 31.35 54.1375 31.4875 54.7L32.025 56.8625C32.3 57.975 33.3 58.75 34.45 58.75H45.55C46.7 58.75 47.7 57.975 47.975 56.8625L48.5125 54.7C48.65 54.1375 49.15 53.75 49.725 53.75H75Z" fill="#D1D1D1"/>
<path d="M63.75 22.5H16.25V42.5H63.75V22.5Z" fill="#D1D1D1"/>
<path d="M16.25 22.5V42.5L12.2 53.75H5L16.25 22.5Z" fill="#E8E8E8"/>
<path d="M75 53.75H67.8L63.75 42.5V22.5L75 53.75Z" fill="#E8E8E8"/>
<path d="M67.7992 53.75H49.7242C49.1492 53.75 48.6492 54.1375 48.5117 54.7L47.9742 56.8625C47.6992 57.975 46.6992 58.75 45.5492 58.75H34.4492C33.2992 58.75 32.2992 57.975 32.0242 56.8625L31.4867 54.7C31.3492 54.1375 30.8492 53.75 30.2742 53.75H12.1992L16.2492 42.5H63.7492L67.7992 53.75Z" fill="#F1F1F1"/>
<path d="M51.25 17.5C51.25 22.8 47.5875 27.2375 42.6625 28.4375L40 33.75L37.3375 28.4375C32.4125 27.2375 28.75 22.8 28.75 17.5C28.75 11.2875 33.7875 6.25 40 6.25C46.2125 6.25 51.25 11.2875 51.25 17.5Z" fill="#0054EB"/>
<path d="M35.5725 23.1719C35.2475 23.1719 34.935 23.0469 34.685 22.8094C34.1975 22.3219 34.1975 21.5344 34.685 21.0469L43.5225 12.2094C44.01 11.7219 44.7975 11.7219 45.285 12.2094C45.7725 12.6969 45.7725 13.4844 45.285 13.9719L36.4475 22.8094C36.1975 23.0594 35.885 23.1719 35.56 23.1719H35.5725Z" fill="white"/>
<path d="M44.4256 23.1719C44.1006 23.1719 43.7881 23.0469 43.5381 22.8094L34.7006 13.9719C34.2131 13.4844 34.2131 12.6969 34.7006 12.2094C35.1881 11.7219 35.9756 11.7219 36.4631 12.2094L45.3006 21.0469C45.7881 21.5344 45.7881 22.3219 45.3006 22.8094C45.0506 23.0594 44.7381 23.1719 44.4131 23.1719H44.4256Z" fill="white"/>
</svg>
