<svg width="106" height="46" viewBox="0 0 106 46" fill="none" xmlns="http://www.w3.org/2000/svg">
<g clip-path="url(#clip0_15089_896)">
<path d="M23.8265 24.2157V34.8078C23.8265 34.84 23.8138 34.8708 23.7913 34.8936C23.7687 34.9164 23.7381 34.9291 23.7061 34.9291H20.8665C20.8385 34.9298 20.8112 34.9205 20.7892 34.903C20.7672 34.8855 20.752 34.8609 20.7461 34.8333C20.7302 34.7676 20.721 34.7006 20.7184 34.6331C20.7184 30.2647 20.7016 25.9036 20.7184 21.5389C20.7126 21.0637 20.8342 20.5957 21.0704 20.1844C21.3066 19.773 21.6485 19.4336 22.0602 19.202C22.4719 18.9703 22.9379 18.855 23.4092 18.8682C23.8805 18.8814 24.3395 19.0227 24.7378 19.2771C25.1976 19.5622 25.5804 20.0767 25.8404 20.5718C27.6869 24.1005 29.4926 27.6522 31.3126 31.1978C31.3861 31.341 31.4523 31.4891 31.5365 31.6262C31.7773 32.023 32.1168 32.2705 32.5995 32.2523C33.0822 32.2341 33.3988 31.9853 33.6166 31.5606C35.4873 27.9114 37.3575 24.2667 39.2273 20.6264C39.5343 20.027 39.8918 19.4967 40.5117 19.1703C42.0766 18.3464 44.0965 19.4421 44.1109 21.2125C44.1495 25.7228 44.1254 30.2332 44.1254 34.7435C44.1238 34.7811 44.1186 34.8185 44.1097 34.8551C44.1039 34.8827 44.0886 34.9074 44.0667 34.9249C44.0447 34.9424 44.0174 34.9516 43.9894 34.951H41.0943C41.0624 34.951 41.0318 34.9382 41.0092 34.9154C40.9866 34.8927 40.974 34.8618 40.974 34.8296V24.8734L40.655 24.7933L40.6477 24.8091C39.2153 27.5903 37.8045 30.3824 36.3479 33.1502C36.0612 33.7039 35.6574 34.1873 35.165 34.5662C34.6725 34.9452 34.1035 35.2105 33.4981 35.3434C32.8928 35.4763 32.2659 35.4735 31.6617 35.3352C31.0575 35.1969 30.4909 34.9266 30.0018 34.5433C29.4336 34.0733 28.966 33.4921 28.6271 32.8347C27.0983 29.9589 25.6333 27.0491 24.1443 24.1526L23.8265 24.2157Z" fill="#0054EB"/>
<path d="M63.9281 22.0793C63.8949 22.0741 63.861 22.0822 63.8338 22.102C63.8065 22.1217 63.7881 22.1515 63.7824 22.1849C63.7824 22.1849 63.7824 22.1946 63.7824 22.2007V34.0729C63.7824 34.9029 63.7259 34.9599 62.9121 34.9611C62.3668 34.9611 61.8215 34.949 61.2762 34.9611C60.8224 34.9745 60.6322 34.7488 60.625 34.3192V20.2046C60.625 19.2994 60.6948 19.2338 61.5687 19.2338C62.0984 19.2338 62.6292 19.2642 63.1565 19.2338C65.4701 19.0785 67.236 20.1354 68.7299 21.7821C70.4512 23.675 71.7392 25.8847 73.1476 28.0021C73.9782 29.2507 74.7895 30.5212 75.9837 31.464C76.2899 31.6961 76.6281 31.8817 76.9876 32.0149C77.4523 32.1957 77.5197 32.1302 77.5233 31.6388V19.9983C77.5233 19.3261 77.6063 19.2448 78.2696 19.2423H79.9548C80.5459 19.2423 80.6602 19.3491 80.6627 19.9498C80.6699 21.6316 80.6627 23.3134 80.6627 24.9952V34.1142C80.6627 34.8993 80.5904 34.9745 79.8068 34.9636C78.7968 34.9551 77.7761 35.023 76.7794 34.8993C75.3132 34.7184 74.1395 33.8824 73.2114 32.777C72.2484 31.6339 71.3865 30.4047 70.5126 29.1888C69.227 27.3978 68.016 25.5485 66.6751 23.8012C66.2164 23.1933 65.6218 22.2092 63.9281 22.0793Z" fill="#0054EB"/>
<path d="M90.3515 31.6751C90.3515 31.7072 90.3642 31.7381 90.3868 31.7609C90.4094 31.7836 90.44 31.7964 90.4719 31.7964H99.5301C100.378 31.7967 101.193 31.4628 101.8 30.8662C102.407 30.2695 102.759 29.4572 102.78 28.6026C102.806 27.4863 102.807 26.3675 102.759 25.2536C102.694 23.7671 101.597 22.6156 100.131 22.4239C99.8444 22.3903 99.5561 22.3749 99.2677 22.3777H88.0536C87.2868 22.3777 87.2109 22.2989 87.2109 21.5114V19.8623C87.2109 19.4182 87.418 19.2155 87.8598 19.2155C91.8538 19.2216 95.8503 19.1719 99.8431 19.2374C103.305 19.2944 105.831 21.9433 105.971 25.5472C106.016 26.6927 106.012 27.8443 105.952 28.9885C105.885 30.5906 105.207 32.1047 104.06 33.2155C102.913 34.3263 101.384 34.9481 99.7938 34.9513C95.831 34.9804 91.8683 34.9598 87.9055 34.9574C87.3446 34.9574 87.2218 34.8361 87.2206 34.2742V26.3202C87.2206 25.7135 87.3409 25.6128 87.9248 25.6103C88.5086 25.6079 89.0804 25.6103 89.657 25.6103C90.2336 25.6103 90.3539 25.7317 90.3551 26.3311V31.1848L90.3515 31.6751Z" fill="#0054EB"/>
<path d="M53.9507 27.1194V34.1998C53.9507 34.8405 53.8303 34.9558 53.1899 34.9594H51.5528C50.9305 34.9594 50.7969 34.8211 50.7969 34.184V20.0245C50.7969 19.3571 50.9281 19.2212 51.5721 19.2188H53.2092C53.8424 19.2188 53.9519 19.3401 53.9519 19.9917C53.9527 22.3668 53.9523 24.7427 53.9507 27.1194Z" fill="#0CDED7"/>
<path d="M20.8924 1.28083C21.0176 1.26437 21.1351 1.21084 21.2301 1.12703C21.3251 1.04321 21.3932 0.932881 21.426 0.809992C21.4588 0.687103 21.4546 0.557181 21.4141 0.436669C21.3736 0.316156 21.2985 0.21047 21.1984 0.132985C21.0982 0.0554996 20.9775 0.00969817 20.8516 0.00137691C20.7256 -0.00694435 20.6 0.0225886 20.4907 0.0862383C20.3814 0.149888 20.2933 0.244793 20.2375 0.358944C20.1818 0.473095 20.1608 0.601359 20.1774 0.727506C20.1999 0.896256 20.2877 1.04918 20.4217 1.15286C20.5557 1.25654 20.7249 1.30255 20.8924 1.28083Z" fill="#D1D1D1"/>
<path d="M16.9246 0.624903C16.76 0.647429 16.6056 0.718526 16.4809 0.829254C16.3562 0.939982 16.2668 1.0854 16.2239 1.24722C16.181 1.40903 16.1865 1.58003 16.2397 1.7387C16.293 1.89738 16.3915 2.03664 16.5231 2.13899C16.6546 2.24134 16.8132 2.30219 16.979 2.31391C17.1448 2.32563 17.3102 2.28768 17.4547 2.20484C17.5991 2.122 17.716 1.99797 17.7907 1.84834C17.8653 1.6987 17.8945 1.53016 17.8744 1.36388C17.8609 1.25219 17.8255 1.14431 17.7703 1.04651C17.7151 0.94871 17.6412 0.862943 17.5528 0.79419C17.4644 0.725436 17.3634 0.675066 17.2556 0.646005C17.1477 0.616944 17.0352 0.609771 16.9246 0.624903Z" fill="#D1D1D1"/>
<path d="M13.3296 1.93023C13.1291 1.95613 12.9407 2.04139 12.7883 2.17522C12.6358 2.30904 12.5262 2.48543 12.4732 2.68207C12.4202 2.87872 12.4263 3.08678 12.4906 3.27995C12.555 3.47312 12.6747 3.64272 12.8346 3.76731C12.9946 3.89189 13.1876 3.96586 13.3893 3.97985C13.5909 3.99385 13.7922 3.94725 13.9676 3.84595C14.143 3.74464 14.2846 3.59318 14.3746 3.41072C14.4646 3.22826 14.4989 3.023 14.4732 2.82089C14.4386 2.54993 14.2988 2.30389 14.0843 2.13686C13.8699 1.96984 13.5984 1.89551 13.3296 1.93023Z" fill="#D1D1D1"/>
<path d="M10.1941 6.21154C10.8363 6.21154 11.3569 5.68674 11.3569 5.03936C11.3569 4.39199 10.8363 3.86719 10.1941 3.86719C9.55186 3.86719 9.03125 4.39199 9.03125 5.03936C9.03125 5.68674 9.55186 6.21154 10.1941 6.21154Z" fill="#D1D1D1"/>
<path d="M7.17529 6.39323C6.92522 6.42552 6.69026 6.53184 6.50012 6.69874C6.30999 6.86564 6.17322 7.08563 6.10711 7.33088C6.041 7.57613 6.04851 7.83564 6.12871 8.07658C6.2089 8.31753 6.35818 8.5291 6.55765 8.68453C6.75712 8.83996 6.99783 8.93227 7.24935 8.9498C7.50087 8.96733 7.7519 8.90928 7.97069 8.783C8.18948 8.65672 8.36621 8.46788 8.47854 8.24035C8.59086 8.01282 8.63374 7.75682 8.60174 7.50473C8.58049 7.33733 8.52673 7.17579 8.44354 7.02933C8.36035 6.88287 8.24936 6.75436 8.1169 6.65115C7.98444 6.54793 7.83311 6.47203 7.67154 6.42778C7.50998 6.38352 7.34135 6.37178 7.17529 6.39323Z" fill="#D1D1D1"/>
<path d="M4.80723 9.3862C4.53946 9.42109 4.28797 9.53525 4.08457 9.71423C3.88117 9.89321 3.73498 10.129 3.66451 10.3917C3.59404 10.6544 3.60243 10.9323 3.68865 11.1903C3.77486 11.4482 3.93501 11.6745 4.14884 11.8407C4.36268 12.0069 4.62059 12.1054 4.88997 12.1238C5.15935 12.1422 5.42809 12.0796 5.66221 11.944C5.89632 11.8085 6.08529 11.606 6.20523 11.3621C6.32516 11.1183 6.37067 10.8441 6.33599 10.5741C6.28979 10.2126 6.10304 9.88438 5.81681 9.66161C5.53058 9.43884 5.1683 9.33978 4.80963 9.3862H4.80723Z" fill="#D1D1D1"/>
<path d="M3.37228 15.6248C3.65158 15.5883 3.9139 15.4693 4.12607 15.2826C4.33824 15.0959 4.49074 14.85 4.56429 14.576C4.63783 14.3019 4.62912 14.0121 4.53925 13.743C4.44938 13.474 4.28239 13.2378 4.0594 13.0645C3.8364 12.8911 3.56741 12.7882 3.28644 12.7689C3.00547 12.7497 2.72513 12.8148 2.48087 12.9561C2.23661 13.0974 2.03939 13.3085 1.91416 13.5628C1.78893 13.8171 1.74131 14.1031 1.77731 14.3846C1.82591 14.7622 2.02118 15.1048 2.32024 15.3374C2.61929 15.5699 2.99768 15.6733 3.37228 15.6248Z" fill="#D1D1D1"/>
<path d="M2.196 19.3876C2.48575 19.3501 2.75799 19.2269 2.97829 19.0335C3.19858 18.8401 3.35704 18.5852 3.43361 18.301C3.51019 18.0169 3.50144 17.7162 3.40849 17.437C3.31553 17.1578 3.14254 16.9127 2.91139 16.7326C2.68024 16.5526 2.40131 16.4457 2.10987 16.4254C1.81843 16.4051 1.52758 16.4725 1.2741 16.6188C1.02061 16.7652 0.81588 16.9841 0.685789 17.2477C0.555698 17.5114 0.506092 17.808 0.543245 18.1001C0.568049 18.2939 0.630476 18.4808 0.726962 18.6503C0.823448 18.8197 0.952102 18.9684 1.10558 19.0877C1.25905 19.207 1.43434 19.2947 1.62144 19.3458C1.80853 19.3968 2.00377 19.4102 2.196 19.3851V19.3876Z" fill="#D1D1D1"/>
<path d="M1.6855 23.2675C1.97882 23.2295 2.25438 23.1047 2.47733 22.9089C2.70027 22.713 2.86059 22.4549 2.938 22.1672C3.0154 21.8795 3.00643 21.5751 2.9122 21.2925C2.81797 21.0099 2.64273 20.7619 2.40863 20.5797C2.17453 20.3976 1.8921 20.2895 1.59706 20.2691C1.30202 20.2488 1.00763 20.3171 0.751109 20.4655C0.494592 20.6138 0.287479 20.8355 0.155968 21.1025C0.0244559 21.3695 -0.0255465 21.6698 0.0122848 21.9655C0.0370892 22.1618 0.100081 22.3513 0.19765 22.5231C0.29522 22.6949 0.425451 22.8455 0.580882 22.9665C0.736313 23.0874 0.913889 23.1763 1.10344 23.2279C1.29299 23.2796 1.49079 23.293 1.6855 23.2675Z" fill="#D1D1D1"/>
<path d="M1.65374 27.1912C2.48941 27.1912 3.16686 26.5083 3.16686 25.6659C3.16686 24.8235 2.48941 24.1406 1.65374 24.1406C0.81807 24.1406 0.140625 24.8235 0.140625 25.6659C0.140625 26.5083 0.81807 27.1912 1.65374 27.1912Z" fill="#D1D1D1"/>
<path d="M3.96234 29.284C3.9247 28.9884 3.80095 28.7106 3.60672 28.4859C3.4125 28.2611 3.15652 28.0995 2.87117 28.0214C2.58581 27.9433 2.28389 27.9523 2.00358 28.0471C1.72327 28.142 1.47717 28.3185 1.29638 28.5544C1.11559 28.7902 1.00825 29.0748 0.987915 29.3722C0.967582 29.6696 1.03518 29.9663 1.18215 30.225C1.32913 30.4836 1.54888 30.6925 1.81363 30.8252C2.07837 30.958 2.37622 31.0086 2.66951 30.9707C2.86412 30.9454 3.05187 30.8817 3.22206 30.7832C3.39224 30.6848 3.54151 30.5535 3.66134 30.3968C3.78117 30.2402 3.86922 30.0613 3.92045 29.8704C3.97169 29.6794 3.9851 29.4802 3.95993 29.284H3.96234Z" fill="#D1D1D1"/>
<path d="M5.41078 32.8934C5.37365 32.6013 5.25142 32.3269 5.05956 32.1048C4.86771 31.8827 4.61483 31.723 4.33292 31.6458C4.05101 31.5686 3.75272 31.5774 3.47577 31.6711C3.19883 31.7648 2.95567 31.9392 2.77704 32.1722C2.59842 32.4052 2.49235 32.6864 2.47225 32.9802C2.45215 33.274 2.51893 33.5672 2.66413 33.8227C2.80934 34.0782 3.02645 34.2846 3.28801 34.4157C3.54957 34.5469 3.84384 34.5969 4.1336 34.5594C4.52212 34.5092 4.87495 34.3055 5.11447 33.993C5.35398 33.6806 5.46057 33.285 5.41078 32.8934Z" fill="#D1D1D1"/>
<path d="M7.43009 36.1891C7.39401 35.9076 7.27595 35.6432 7.09083 35.4293C6.90572 35.2154 6.66185 35.0616 6.39007 34.9874C6.11828 34.9132 5.83077 34.9219 5.56388 35.0124C5.29699 35.1029 5.06269 35.2711 4.89061 35.4957C4.71853 35.7204 4.61639 35.9915 4.5971 36.2746C4.5778 36.5578 4.64222 36.8404 4.78222 37.0867C4.92221 37.3329 5.13149 37.5319 5.3836 37.6583C5.63572 37.7847 5.91935 37.8329 6.19865 37.7969C6.57341 37.7482 6.91365 37.5514 7.14457 37.2499C7.37549 36.9485 7.47819 36.5669 7.43009 36.1891Z" fill="#D1D1D1"/>
<path d="M8.44122 37.8863C8.17337 37.921 7.92173 38.035 7.71815 38.2139C7.51457 38.3927 7.3682 38.6284 7.29755 38.8912C7.22689 39.1539 7.23514 39.4319 7.32124 39.6899C7.40734 39.9479 7.56743 40.1744 7.78124 40.3407C7.99506 40.507 8.253 40.6056 8.52243 40.624C8.79186 40.6425 9.06068 40.58 9.29486 40.4444C9.52904 40.3089 9.71807 40.1063 9.83803 39.8624C9.958 39.6185 10.0035 39.3443 9.96878 39.0743C9.94591 38.8952 9.88825 38.7223 9.79909 38.5657C9.70993 38.409 9.59103 38.2716 9.44917 38.1613C9.30731 38.051 9.14528 37.9699 8.97233 37.9227C8.79939 37.8756 8.61891 37.8632 8.44122 37.8863Z" fill="#D1D1D1"/>
<path d="M11.5112 40.3542C11.2612 40.3865 11.0262 40.4928 10.8361 40.6597C10.6459 40.8266 10.5092 41.0466 10.443 41.2918C10.3769 41.5371 10.3845 41.7966 10.4646 42.0375C10.5448 42.2785 10.6941 42.49 10.8936 42.6455C11.0931 42.8009 11.3338 42.8932 11.5853 42.9107C11.8368 42.9283 12.0878 42.8702 12.3066 42.7439C12.5254 42.6177 12.7022 42.4288 12.8145 42.2013C12.9268 41.9738 12.9697 41.7178 12.9377 41.4657C12.9164 41.2983 12.8627 41.1367 12.7795 40.9903C12.6963 40.8438 12.5853 40.7153 12.4528 40.6121C12.3204 40.5089 12.169 40.433 12.0075 40.3887C11.8459 40.3445 11.6773 40.3327 11.5112 40.3542Z" fill="#D1D1D1"/>
<path d="M14.9512 42.2754C14.7232 42.3052 14.509 42.4024 14.3357 42.5548C14.1625 42.7072 14.038 42.908 13.9779 43.1317C13.9178 43.3554 13.9249 43.5921 13.9982 43.8118C14.0716 44.0315 14.2079 44.2243 14.3899 44.3659C14.5719 44.5075 14.7915 44.5916 15.0209 44.6074C15.2504 44.6232 15.4793 44.5701 15.6787 44.4548C15.8782 44.3395 16.0393 44.1672 16.1416 43.9596C16.244 43.7521 16.283 43.5186 16.2537 43.2887C16.2344 43.1358 16.1853 42.9883 16.1094 42.8547C16.0334 42.721 15.9321 42.6037 15.8111 42.5096C15.6901 42.4154 15.5518 42.3463 15.4043 42.3061C15.2567 42.266 15.1028 42.2555 14.9512 42.2754Z" fill="#D1D1D1"/>
<path d="M18.7798 45.6542C19.3442 45.6542 19.8018 45.1929 19.8018 44.624C19.8018 44.055 19.3442 43.5938 18.7798 43.5938C18.2154 43.5938 17.7578 44.055 17.7578 44.624C17.7578 45.1929 18.2154 45.6542 18.7798 45.6542Z" fill="#D1D1D1"/>
<path d="M22.5013 44.2969C22.2741 44.2983 22.0568 44.3905 21.897 44.5532C21.7371 44.7158 21.6477 44.9358 21.6484 45.1648C21.6492 45.3937 21.7399 45.6131 21.9008 45.7748C22.0617 45.9364 22.2796 46.0272 22.5067 46.0272C22.7339 46.0272 22.9518 45.9364 23.1126 45.7748C23.2735 45.6131 23.3643 45.3937 23.365 45.1648C23.3657 44.9358 23.2763 44.7158 23.1165 44.5532C22.9566 44.3905 22.7393 44.2983 22.5121 44.2969H22.5013Z" fill="#D1D1D1"/>
<path d="M26.4068 44.3492C26.2816 44.3657 26.1641 44.4193 26.0691 44.5032C25.9741 44.587 25.906 44.6975 25.8733 44.8204C25.8406 44.9434 25.8449 45.0733 25.8855 45.1938C25.9261 45.3144 26.0013 45.42 26.1016 45.4974C26.2018 45.5748 26.3226 45.6205 26.4486 45.6287C26.5747 45.6368 26.7002 45.6071 26.8095 45.5433C26.9187 45.4794 27.0067 45.3844 27.0623 45.2701C27.118 45.1558 27.1387 45.0275 27.1219 44.9013C27.0994 44.7326 27.0115 44.5798 26.8775 44.4763C26.7435 44.3728 26.5742 44.3271 26.4068 44.3492Z" fill="#D1D1D1"/>
<path d="M27.1024 4.43205C27.3962 4.43205 27.6344 4.19192 27.6344 3.89571C27.6344 3.5995 27.3962 3.35938 27.1024 3.35938C26.8085 3.35938 26.5703 3.5995 26.5703 3.89571C26.5703 4.19192 26.8085 4.43205 27.1024 4.43205Z" fill="#D1D1D1"/>
<path d="M23.8172 3.02124C23.6775 3.00353 23.5358 3.02791 23.4099 3.09129C23.284 3.15468 23.1795 3.25423 23.1096 3.3774C23.0398 3.50057 23.0076 3.64183 23.0173 3.78338C23.027 3.92492 23.078 4.06041 23.164 4.17275C23.25 4.28509 23.367 4.36925 23.5004 4.41462C23.6337 4.45998 23.7774 4.46453 23.9134 4.42767C24.0493 4.39081 24.1713 4.31421 24.2641 4.20752C24.3569 4.10083 24.4163 3.96883 24.4347 3.82818C24.447 3.73427 24.4408 3.63884 24.4164 3.54737C24.392 3.4559 24.3499 3.3702 24.2925 3.29521C24.2351 3.22021 24.1636 3.15739 24.082 3.11037C24.0004 3.06336 23.9104 3.03306 23.8172 3.02124Z" fill="#D1D1D1"/>
<path d="M20.4848 3.30449C20.3157 3.28178 20.1436 3.31014 19.9904 3.38599C19.8372 3.46183 19.7098 3.58176 19.6242 3.73061C19.5386 3.87945 19.4987 4.05054 19.5096 4.22223C19.5204 4.39393 19.5815 4.55852 19.6852 4.69522C19.7888 4.83191 19.9303 4.93456 20.0918 4.99019C20.2533 5.04583 20.4275 5.05194 20.5925 5.00777C20.7574 4.9636 20.9057 4.87113 21.0185 4.74204C21.1313 4.61294 21.2037 4.45303 21.2263 4.28251C21.2414 4.16921 21.2342 4.05402 21.2051 3.94353C21.1759 3.83305 21.1255 3.72943 21.0567 3.6386C20.9878 3.54777 20.9018 3.47151 20.8037 3.41418C20.7056 3.35685 20.5972 3.31958 20.4848 3.30449Z" fill="#D1D1D1"/>
<path d="M17.2739 4.20441C17.081 4.17789 16.8845 4.20965 16.7095 4.29566C16.5344 4.38168 16.3886 4.5181 16.2904 4.68766C16.1923 4.85722 16.1462 5.05231 16.1581 5.24826C16.1699 5.44421 16.2391 5.63222 16.357 5.78852C16.4748 5.94482 16.636 6.06238 16.8201 6.12633C17.0042 6.19029 17.2031 6.19778 17.3914 6.14784C17.5797 6.0979 17.7492 5.99278 17.8782 5.84578C18.0073 5.69878 18.0903 5.5165 18.1166 5.32198C18.1515 5.0612 18.0824 4.79709 17.9245 4.58758C17.7665 4.37808 17.5326 4.24028 17.2739 4.20441Z" fill="#D1D1D1"/>
<path d="M14.2847 5.67411C14.0723 5.64488 13.8562 5.67978 13.6635 5.7744C13.4709 5.86901 13.3104 6.0191 13.2024 6.20567C13.0944 6.39224 13.0437 6.60692 13.0567 6.82254C13.0697 7.03816 13.1459 7.24504 13.2756 7.41702C13.4053 7.589 13.5826 7.71835 13.7852 7.7887C13.9878 7.85905 14.2066 7.86726 14.4138 7.81227C14.6211 7.75728 14.8075 7.64157 14.9495 7.47977C15.0915 7.31798 15.1827 7.11737 15.2116 6.90332C15.2503 6.61643 15.1744 6.32578 15.0006 6.09528C14.8267 5.86478 14.5693 5.71329 14.2847 5.67411Z" fill="#D1D1D1"/>
<path d="M11.6094 7.66652C11.3822 7.63595 11.1511 7.67397 10.9454 7.77577C10.7396 7.87757 10.5684 8.03857 10.4534 8.23844C10.3384 8.4383 10.2847 8.66805 10.2992 8.89865C10.3137 9.12925 10.3957 9.35034 10.5348 9.53398C10.6739 9.71762 10.8639 9.85556 11.0808 9.93037C11.2976 10.0052 11.5316 10.0135 11.7532 9.95429C11.9747 9.89508 12.1739 9.77097 12.3255 9.59768C12.4771 9.42438 12.5744 9.20966 12.6049 8.98067C12.6253 8.82848 12.6156 8.67374 12.5766 8.5253C12.5375 8.37687 12.4699 8.23764 12.3774 8.1156C12.2849 7.99355 12.1695 7.89107 12.0378 7.81401C11.906 7.73695 11.7604 7.68684 11.6094 7.66652Z" fill="#D1D1D1"/>
<path d="M9.1641 12.5508C9.8329 12.5508 10.3751 12.0043 10.3751 11.3301C10.3751 10.6559 9.8329 10.1094 9.1641 10.1094C8.4953 10.1094 7.95312 10.6559 7.95312 11.3301C7.95312 12.0043 8.4953 12.5508 9.1641 12.5508Z" fill="#D1D1D1"/>
<path d="M7.17469 15.4419C7.42077 15.4751 7.67111 15.4341 7.89407 15.324C8.11703 15.2138 8.30258 15.0395 8.42728 14.8231C8.55198 14.6067 8.61022 14.3579 8.59464 14.1081C8.57906 13.8583 8.49036 13.6188 8.33975 13.4198C8.18914 13.2208 7.98339 13.0713 7.7485 12.9902C7.51362 12.9091 7.26015 12.9 7.02014 12.9641C6.78013 13.0281 6.56435 13.1625 6.4001 13.3502C6.23584 13.5379 6.13048 13.7705 6.09733 14.0185C6.07514 14.1833 6.08543 14.3509 6.1276 14.5117C6.16976 14.6725 6.24298 14.8233 6.34306 14.9555C6.44313 15.0877 6.5681 15.1987 6.71081 15.2822C6.85351 15.3657 7.01115 15.4199 7.17469 15.4419Z" fill="#D1D1D1"/>
<path d="M5.86782 18.6061C6.11695 18.6398 6.37041 18.5983 6.59614 18.4868C6.82188 18.3753 7.00976 18.1989 7.13604 17.9798C7.26233 17.7607 7.32133 17.5088 7.30561 17.2559C7.28989 17.003 7.20014 16.7605 7.04771 16.559C6.89528 16.3576 6.68701 16.2061 6.44924 16.124C6.21146 16.0418 5.95485 16.0325 5.71184 16.0973C5.46884 16.1621 5.25034 16.2981 5.08399 16.488C4.91763 16.678 4.81088 16.9134 4.77722 17.1645C4.7547 17.3314 4.76505 17.5011 4.80771 17.6639C4.85036 17.8268 4.92446 17.9795 5.02577 18.1134C5.12708 18.2473 5.25361 18.3598 5.3981 18.4443C5.5426 18.5289 5.70222 18.5838 5.86782 18.6061Z" fill="#D1D1D1"/>
<path d="M5.13064 21.9421C5.38298 21.9763 5.63973 21.9344 5.8684 21.8215C6.09707 21.7086 6.28738 21.5299 6.41524 21.3079C6.5431 21.086 6.60276 20.8308 6.58668 20.5746C6.5706 20.3184 6.47949 20.0729 6.32489 19.8689C6.1703 19.665 5.95915 19.5119 5.71819 19.4289C5.47723 19.346 5.21728 19.337 4.97124 19.4031C4.7252 19.4691 4.50413 19.6073 4.33601 19.8001C4.16789 19.9928 4.06029 20.2315 4.0268 20.486C3.98199 20.8266 4.07304 21.1712 4.27999 21.4441C4.48693 21.7171 4.79286 21.8962 5.13064 21.9421Z" fill="#D1D1D1"/>
<path d="M6.39821 24.2331C6.43165 23.982 6.39048 23.7265 6.2799 23.4989C6.16932 23.2714 5.9943 23.082 5.77696 22.9547C5.55961 22.8274 5.30971 22.7679 5.05884 22.7838C4.80796 22.7996 4.56738 22.8901 4.36751 23.0437C4.16763 23.1974 4.01744 23.4073 3.93591 23.647C3.85438 23.8867 3.84518 24.1454 3.90946 24.3903C3.97375 24.6353 4.10864 24.8556 4.29708 25.0232C4.48552 25.1909 4.71905 25.2986 4.96815 25.3325C5.1337 25.3552 5.30206 25.3447 5.46359 25.3018C5.62512 25.2588 5.77665 25.1841 5.90949 25.0819C6.04234 24.9798 6.15389 24.8523 6.23775 24.7066C6.32161 24.561 6.37614 24.4 6.39821 24.2331Z" fill="#D1D1D1"/>
<path d="M6.81238 27.6214C6.84539 27.3733 6.8047 27.1209 6.69544 26.8962C6.58619 26.6715 6.41328 26.4844 6.19858 26.3587C5.98388 26.233 5.73702 26.1743 5.48923 26.19C5.24143 26.2057 5.00382 26.2951 4.80643 26.4469C4.60904 26.5988 4.46073 26.8062 4.38026 27.0429C4.2998 27.2797 4.29078 27.5352 4.35435 27.7772C4.41792 28.0191 4.55123 28.2366 4.73742 28.4022C4.92361 28.5678 5.15432 28.674 5.40038 28.7074C5.56386 28.7298 5.73012 28.7194 5.88962 28.6769C6.04912 28.6344 6.19874 28.5606 6.3299 28.4597C6.46107 28.3588 6.5712 28.2328 6.65399 28.089C6.73678 27.9451 6.79061 27.7862 6.81238 27.6214Z" fill="#D1D1D1"/>
<path d="M6.57816 31.9258C7.24696 31.9258 7.78914 31.3793 7.78914 30.7051C7.78914 30.0309 7.24696 29.4844 6.57816 29.4844C5.90936 29.4844 5.36719 30.0309 5.36719 30.7051C5.36719 31.3793 5.90936 31.9258 6.57816 31.9258Z" fill="#D1D1D1"/>
<path d="M8.28929 32.5728C8.06203 32.5422 7.83088 32.5802 7.62506 32.682C7.41923 32.7838 7.24799 32.9449 7.13297 33.1448C7.01796 33.3448 6.96434 33.5746 6.9789 33.8052C6.99346 34.0359 7.07555 34.257 7.21478 34.4406C7.35401 34.6243 7.54412 34.7621 7.76109 34.8368C7.97806 34.9115 8.21213 34.9197 8.4337 34.8603C8.65527 34.8009 8.85439 34.6766 9.00588 34.5031C9.15738 34.3297 9.25444 34.1148 9.28479 33.8857C9.30512 33.7338 9.29556 33.5793 9.25665 33.4311C9.21775 33.2829 9.15026 33.1438 9.05804 33.0219C8.96582 32.9 8.85067 32.7976 8.71918 32.7205C8.58769 32.6434 8.44243 32.5933 8.29169 32.5728H8.28929Z" fill="#D1D1D1"/>
<path d="M10.3248 35.3539C10.1125 35.3245 9.89629 35.3592 9.70356 35.4536C9.51084 35.548 9.35021 35.6979 9.24201 35.8844C9.13381 36.0708 9.08289 36.2854 9.09568 36.5011C9.10848 36.7167 9.18443 36.9236 9.31391 37.0958C9.4434 37.2679 9.62061 37.3974 9.82313 37.468C10.0256 37.5386 10.2444 37.547 10.4517 37.4923C10.659 37.4375 10.8455 37.3221 10.9877 37.1605C11.1299 36.9988 11.2213 36.7984 11.2504 36.5844C11.2895 36.2975 11.2139 36.0067 11.0403 35.7759C10.8668 35.5452 10.6094 35.3934 10.3248 35.3539Z" fill="#D1D1D1"/>
<path d="M12.7974 37.7591C12.6044 37.7326 12.408 37.7643 12.2329 37.8504C12.0579 37.9364 11.912 38.0728 11.8139 38.2423C11.7157 38.4119 11.6697 38.607 11.6815 38.8029C11.6934 38.9989 11.7626 39.1869 11.8804 39.3432C11.9983 39.4995 12.1594 39.6171 12.3436 39.681C12.5277 39.745 12.7265 39.7525 12.9148 39.7025C13.1032 39.6526 13.2726 39.5475 13.4017 39.4005C13.5308 39.2535 13.6137 39.0712 13.64 38.8767C13.6749 38.6159 13.6059 38.3518 13.4479 38.1423C13.2899 37.9328 13.056 37.795 12.7974 37.7591Z" fill="#D1D1D1"/>
<path d="M15.6188 39.7265C15.4496 39.7036 15.2775 39.7317 15.1242 39.8074C14.9708 39.8831 14.8432 40.0029 14.7575 40.1517C14.6717 40.3005 14.6316 40.4715 14.6423 40.6433C14.653 40.815 14.714 40.9797 14.8176 41.1165C14.9211 41.2534 15.0626 41.3561 15.2241 41.4119C15.3856 41.4676 15.5599 41.4739 15.7249 41.4298C15.8899 41.3857 16.0382 41.2932 16.1511 41.1641C16.264 41.035 16.3364 40.8751 16.3591 40.7045C16.3896 40.4759 16.3287 40.2444 16.1899 40.061C16.051 39.8776 15.8456 39.7573 15.6188 39.7265Z" fill="#D1D1D1"/>
<path d="M19.3277 41.9949C19.3801 41.6017 19.1064 41.2402 18.7163 41.1873C18.3263 41.1345 17.9676 41.4105 17.9152 41.8037C17.8628 42.1969 18.1365 42.5584 18.5266 42.6113C18.9167 42.6641 19.2753 42.3881 19.3277 41.9949Z" fill="#D1D1D1"/>
<path d="M21.9371 43.1796C22.2303 43.1796 22.468 42.94 22.468 42.6445C22.468 42.349 22.2303 42.1094 21.9371 42.1094C21.6439 42.1094 21.4062 42.349 21.4062 42.6445C21.4062 42.94 21.6439 43.1796 21.9371 43.1796Z" fill="#D1D1D1"/>
<path d="M31.2408 8.47157C31.319 8.50432 31.4051 8.51295 31.4883 8.49638C31.5714 8.47981 31.6477 8.43878 31.7077 8.37847C31.7677 8.31817 31.8086 8.24129 31.8253 8.15756C31.8419 8.07383 31.8336 7.987 31.8013 7.90804C31.769 7.82908 31.7143 7.76154 31.6439 7.71394C31.5736 7.66635 31.4909 7.64083 31.4061 7.64063C31.3214 7.64042 31.2385 7.66553 31.168 7.71278C31.0974 7.76004 31.0423 7.82731 31.0097 7.90612C30.988 7.95853 30.9767 8.01476 30.9766 8.07156C30.9764 8.12837 30.9874 8.18465 31.0089 8.23717C31.0303 8.28969 31.0619 8.33743 31.1017 8.37766C31.1415 8.41788 31.1887 8.44979 31.2408 8.47157Z" fill="#D1D1D1"/>
<path d="M28.7929 7.79824C29.1101 7.79824 29.3671 7.5391 29.3671 7.21943C29.3671 6.89977 29.1101 6.64062 28.7929 6.64062C28.4758 6.64062 28.2188 6.89977 28.2188 7.21943C28.2188 7.5391 28.4758 7.79824 28.7929 7.79824Z" fill="#D1D1D1"/>
<path d="M26.3509 6.16325C26.2243 6.11002 26.0849 6.09583 25.9504 6.12248C25.8158 6.14912 25.6921 6.21541 25.5948 6.31294C25.4976 6.41048 25.4313 6.53488 25.4043 6.67042C25.3772 6.80596 25.3906 6.94654 25.4428 7.07439C25.495 7.20224 25.5837 7.3116 25.6976 7.38865C25.8115 7.4657 25.9455 7.50697 26.0826 7.50725C26.2198 7.50752 26.3539 7.46679 26.4681 7.3902C26.5823 7.31361 26.6714 7.2046 26.7241 7.07696C26.7947 6.90591 26.7951 6.71357 26.7251 6.54224C26.6552 6.3709 26.5206 6.23458 26.3509 6.16325Z" fill="#D1D1D1"/>
<path d="M23.6432 6.12257C23.498 6.06242 23.3383 6.04701 23.1844 6.07829C23.0304 6.10957 22.8891 6.18614 22.7783 6.29833C22.6675 6.41051 22.5922 6.55328 22.5619 6.70859C22.5315 6.86391 22.5475 7.02481 22.6078 7.17096C22.6681 7.31712 22.7701 7.44198 22.9007 7.52978C23.0314 7.61757 23.185 7.66436 23.342 7.66423C23.499 7.6641 23.6525 7.61706 23.783 7.52905C23.9136 7.44105 24.0153 7.31602 24.0754 7.16976C24.1155 7.07244 24.1362 6.96807 24.1362 6.86266C24.1362 6.75726 24.1155 6.65289 24.0754 6.55557C24.0352 6.45825 23.9763 6.36989 23.9022 6.29558C23.828 6.22127 23.74 6.16247 23.6432 6.12257Z" fill="#D1D1D1"/>
<path d="M20.9793 6.55306C20.8197 6.48557 20.6439 6.4673 20.474 6.50055C20.3041 6.53379 20.1478 6.61708 20.0248 6.73986C19.9019 6.86264 19.8178 7.01941 19.7833 7.19035C19.7487 7.3613 19.7652 7.53873 19.8306 7.70022C19.8961 7.86172 20.0076 8.00002 20.151 8.09765C20.2945 8.19527 20.4634 8.24784 20.6364 8.2487C20.8095 8.24955 20.9789 8.19867 21.1233 8.10247C21.2677 8.00627 21.3805 7.86908 21.4476 7.70825C21.4918 7.60149 21.5148 7.48698 21.5152 7.37126C21.5156 7.25554 21.4933 7.14088 21.4497 7.03383C21.4061 6.92678 21.3421 6.82943 21.2611 6.74736C21.1802 6.66528 21.084 6.60009 20.9781 6.55549L20.9793 6.55306Z" fill="#D1D1D1"/>
<path d="M18.4237 7.44786C18.2526 7.37589 18.0641 7.35669 17.8821 7.3927C17.7001 7.42871 17.5328 7.51831 17.4013 7.65017C17.2699 7.78202 17.1801 7.95022 17.1435 8.13348C17.1068 8.31674 17.1249 8.50684 17.1955 8.67974C17.266 8.85264 17.3858 9.00058 17.5397 9.10485C17.6937 9.20912 17.8748 9.26503 18.0603 9.26552C18.2457 9.26602 18.4271 9.21106 18.5816 9.10762C18.7361 9.00417 18.8567 8.85687 18.9281 8.68434C18.9755 8.56993 19.0002 8.44722 19.0006 8.32322C19.001 8.19921 18.9771 8.07634 18.9304 7.96163C18.8837 7.84692 18.815 7.74261 18.7282 7.65466C18.6415 7.56672 18.5384 7.49686 18.4249 7.44907L18.4237 7.44786Z" fill="#D1D1D1"/>
<path d="M15.2931 10.5884C15.4728 10.6639 15.6708 10.6841 15.8619 10.6463C16.053 10.6085 16.2286 10.5144 16.3667 10.3759C16.5047 10.2374 16.599 10.0608 16.6374 9.86839C16.6759 9.67595 16.6569 9.47633 16.5828 9.29478C16.5088 9.11322 16.383 8.95788 16.2213 8.8484C16.0597 8.73891 15.8695 8.6802 15.6747 8.67969C15.48 8.67918 15.2895 8.73689 15.1273 8.84552C14.9651 8.95415 14.8385 9.10883 14.7635 9.28999C14.7137 9.4103 14.6878 9.53932 14.6875 9.66969C14.6872 9.80005 14.7123 9.9292 14.7615 10.0498C14.8107 10.1703 14.8829 10.28 14.9742 10.3724C15.0654 10.4648 15.1738 10.5382 15.2931 10.5884Z" fill="#D1D1D1"/>
<path d="M13.1437 12.3558C13.3302 12.4343 13.5356 12.4554 13.7339 12.4162C13.9323 12.3771 14.1147 12.2795 14.258 12.1359C14.4014 11.9923 14.4993 11.8091 14.5393 11.6094C14.5794 11.4097 14.5598 11.2025 14.4831 11.014C14.4063 10.8256 14.2759 10.6642 14.1082 10.5505C13.9405 10.4368 13.7431 10.3757 13.541 10.375C13.3389 10.3743 13.1411 10.4341 12.9727 10.5467C12.8043 10.6593 12.6728 10.8197 12.5948 11.0077C12.543 11.1325 12.5161 11.2664 12.5156 11.4018C12.5152 11.5371 12.5412 11.6712 12.5922 11.7964C12.6431 11.9216 12.7181 12.0354 12.8127 12.1314C12.9073 12.2274 13.0198 12.3036 13.1437 12.3558Z" fill="#D1D1D1"/>
<path d="M11.7143 14.5235C12.2901 14.5235 12.7568 14.0531 12.7568 13.4727C12.7568 12.8923 12.2901 12.4219 11.7143 12.4219C11.1386 12.4219 10.6719 12.8923 10.6719 13.4727C10.6719 14.0531 11.1386 14.5235 11.7143 14.5235Z" fill="#D1D1D1"/>
<path d="M9.85208 16.796C10.0447 16.8772 10.257 16.899 10.4619 16.8586C10.6668 16.8182 10.8553 16.7174 11.0034 16.5691C11.1515 16.4207 11.2527 16.2314 11.2941 16.025C11.3354 15.8187 11.3152 15.6047 11.2359 15.4099C11.1565 15.2152 11.0217 15.0486 10.8484 14.9311C10.6752 14.8136 10.4712 14.7506 10.2624 14.75C10.0536 14.7494 9.84927 14.8112 9.67531 14.9277C9.50135 15.0441 9.36556 15.2099 9.28511 15.4042C9.23154 15.5329 9.20368 15.6711 9.20313 15.8107C9.20258 15.9503 9.22935 16.0886 9.2819 16.2178C9.33445 16.3469 9.41175 16.4644 9.50938 16.5634C9.60702 16.6624 9.72306 16.741 9.85087 16.7948L9.85208 16.796Z" fill="#D1D1D1"/>
<path d="M9.20413 19.4409C9.78717 19.4409 10.2598 18.9644 10.2598 18.3767C10.2598 17.789 9.78717 17.3125 9.20413 17.3125C8.62109 17.3125 8.14844 17.789 8.14844 18.3767C8.14844 18.9644 8.62109 19.4409 9.20413 19.4409Z" fill="#D1D1D1"/>
<path d="M9.53556 21.4761C9.53477 21.2022 9.42616 20.9398 9.23358 20.7465C9.04101 20.5532 8.78021 20.4449 8.50847 20.4453C8.23672 20.4457 7.97624 20.5548 7.78423 20.7487C7.59222 20.9425 7.48437 21.2052 7.48438 21.4792C7.48438 21.7531 7.59222 22.0158 7.78423 22.2097C7.97624 22.4035 8.23672 22.5126 8.50847 22.513C8.78021 22.5134 9.04101 22.4051 9.23358 22.2118C9.42616 22.0185 9.53477 21.7561 9.53556 21.4822V21.4761Z" fill="#D1D1D1"/>
<path d="M9.33219 24.2242C9.41009 24.0362 9.43095 23.8291 9.39213 23.6292C9.3533 23.4292 9.25654 23.2454 9.11407 23.1009C8.9716 22.9564 8.78983 22.8577 8.59173 22.8173C8.39363 22.7769 8.1881 22.7967 8.00112 22.874C7.81415 22.9514 7.65413 23.0829 7.54129 23.2519C7.42845 23.4209 7.36787 23.6199 7.36719 23.8236C7.36652 24.0274 7.42579 24.2267 7.5375 24.3965C7.64922 24.5663 7.80836 24.6989 7.99482 24.7775C8.24498 24.8826 8.5263 24.8834 8.77703 24.7797C9.02777 24.6759 9.22743 24.4761 9.33219 24.2242Z" fill="#D1D1D1"/>
<path d="M9.05123 25.6624C8.8715 25.5869 8.67357 25.5667 8.48248 25.6045C8.29138 25.6423 8.11571 25.7364 7.97766 25.8749C7.83961 26.0134 7.74539 26.19 7.70691 26.3824C7.66843 26.5748 7.68743 26.7745 7.76149 26.956C7.83556 27.1376 7.96136 27.2929 8.123 27.4024C8.28464 27.5119 8.47486 27.5706 8.6696 27.5711C8.86434 27.5716 9.05486 27.5139 9.21706 27.4053C9.37927 27.2966 9.50588 27.142 9.58088 26.9608C9.63069 26.8405 9.6565 26.7115 9.65684 26.5811C9.65717 26.4508 9.63203 26.3216 9.58285 26.201C9.53366 26.0805 9.4614 25.9708 9.37019 25.8784C9.27897 25.786 9.17059 25.7126 9.05123 25.6624Z" fill="#D1D1D1"/>
<path d="M9.75313 28.3703C9.58189 28.298 9.39321 28.2785 9.211 28.3144C9.02879 28.3503 8.86125 28.4399 8.72961 28.5719C8.59797 28.7039 8.50815 28.8723 8.47154 29.0557C8.43493 29.2392 8.45317 29.4295 8.52395 29.6025C8.59473 29.7755 8.71487 29.9235 8.86914 30.0276C9.02341 30.1317 9.20487 30.1873 9.39053 30.1874C9.57619 30.1875 9.75768 30.132 9.91203 30.028C10.0664 29.9239 10.1866 29.7761 10.2575 29.6031C10.3525 29.3722 10.3528 29.1127 10.2582 28.8816C10.1636 28.6504 9.98201 28.4666 9.75313 28.3703Z" fill="#D1D1D1"/>
<path d="M10.8761 30.943C10.7164 30.8758 10.5405 30.8579 10.3706 30.8915C10.2008 30.9251 10.0447 31.0087 9.92197 31.1318C9.79928 31.2548 9.71553 31.4118 9.68132 31.5828C9.64712 31.7538 9.66399 31.9313 9.7298 32.0926C9.79562 32.254 9.90742 32.392 10.0511 32.4894C10.1947 32.5867 10.3638 32.6389 10.5369 32.6393C10.7099 32.6398 10.8793 32.5885 11.0234 32.492C11.1676 32.3954 11.2801 32.258 11.3468 32.097C11.4359 31.8813 11.4365 31.6389 11.3485 31.4227C11.2605 31.2066 11.091 31.0345 10.8773 30.9442L10.8761 30.943Z" fill="#D1D1D1"/>
<path d="M12.0757 34.8517C12.5145 34.8517 12.8702 34.4932 12.8702 34.0509C12.8702 33.6086 12.5145 33.25 12.0757 33.25C11.6369 33.25 11.2812 33.6086 11.2812 34.0509C11.2812 34.4932 11.6369 34.8517 12.0757 34.8517Z" fill="#D1D1D1"/>
<path d="M14.2333 35.4053C14.1067 35.3521 13.9674 35.338 13.8329 35.3647C13.6984 35.3914 13.5748 35.4577 13.4776 35.5552C13.3805 35.6527 13.3142 35.777 13.2871 35.9125C13.26 36.0479 13.2734 36.1885 13.3255 36.3163C13.3777 36.4441 13.4662 36.5534 13.58 36.6305C13.6937 36.7076 13.8276 36.749 13.9647 36.7494C14.1018 36.7499 14.2359 36.7093 14.3501 36.6329C14.4644 36.5565 14.5536 36.4477 14.6065 36.3202C14.6416 36.2354 14.6599 36.1445 14.6602 36.0526C14.6604 35.9607 14.6427 35.8697 14.6081 35.7847C14.5734 35.6997 14.5225 35.6225 14.4582 35.5574C14.3939 35.4923 14.3175 35.4406 14.2333 35.4053Z" fill="#D1D1D1"/>
<path d="M16.3817 37.1698C16.277 37.1257 16.1615 37.1138 16.0501 37.1357C15.9386 37.1577 15.8361 37.2124 15.7555 37.2931C15.6749 37.3738 15.6199 37.4767 15.5974 37.5889C15.5748 37.7012 15.5858 37.8176 15.6289 37.9235C15.672 38.0294 15.7453 38.1201 15.8395 38.184C15.9338 38.2479 16.0447 38.2822 16.1582 38.2826C16.2718 38.283 16.3829 38.2494 16.4776 38.1861C16.5722 38.1228 16.6461 38.0327 16.6899 37.927C16.7483 37.7854 16.7486 37.6262 16.6909 37.4843C16.6331 37.3424 16.522 37.2293 16.3817 37.1698Z" fill="#D1D1D1"/>
<path d="M18.7814 38.5881C18.7032 38.5552 18.6171 38.5463 18.5339 38.5627C18.4507 38.5791 18.3742 38.6199 18.3141 38.6801C18.254 38.7403 18.2129 38.8171 18.196 38.9009C18.1792 38.9846 18.1874 39.0715 18.2195 39.1505C18.2517 39.2295 18.3063 39.2972 18.3766 39.3449C18.4469 39.3927 18.5296 39.4183 18.6144 39.4186C18.6991 39.419 18.7821 39.394 18.8527 39.3468C18.9234 39.2996 18.9785 39.2324 19.0113 39.1536C19.033 39.1012 19.0444 39.0451 19.0446 38.9883C19.0448 38.9316 19.0339 38.8754 19.0126 38.8228C18.9912 38.7703 18.9598 38.7226 18.9201 38.6823C18.8805 38.642 18.8333 38.61 18.7814 38.5881Z" fill="#D1D1D1"/>
<path d="M33.3941 12.8241C33.4458 12.8645 33.5083 12.8885 33.5736 12.8931C33.6389 12.8977 33.7041 12.8827 33.7609 12.85C33.8177 12.8172 33.8637 12.7682 33.8929 12.7092C33.9221 12.6501 33.9333 12.5837 33.9251 12.5182C33.9168 12.4528 33.8895 12.3912 33.8466 12.3414C33.8036 12.2916 33.747 12.2557 33.6839 12.2384C33.6207 12.221 33.5539 12.2228 33.4918 12.2437C33.4297 12.2646 33.3752 12.3036 33.3351 12.3558C33.3084 12.3904 33.2888 12.43 33.2773 12.4723C33.2659 12.5146 33.2628 12.5588 33.2683 12.6023C33.2737 12.6458 33.2877 12.6878 33.3093 12.7258C33.3308 12.7639 33.3597 12.7973 33.3941 12.8241Z" fill="#D1D1D1"/>
<path d="M31.7777 11.8125C32.0217 11.8125 32.2195 11.6132 32.2195 11.3672C32.2195 11.1213 32.0217 10.9219 31.7777 10.9219C31.5337 10.9219 31.3359 11.1213 31.3359 11.3672C31.3359 11.6132 31.5337 11.8125 31.7777 11.8125Z" fill="#D1D1D1"/>
<path d="M30.1227 10.0414C30.0396 9.97679 29.9395 9.93838 29.8348 9.931C29.7302 9.92361 29.6257 9.94757 29.5345 9.99987C29.4434 10.0522 29.3696 10.1305 29.3224 10.2249C29.2753 10.3194 29.2569 10.4258 29.2695 10.5308C29.2822 10.6357 29.3253 10.7346 29.3936 10.8149C29.4618 10.8952 29.5521 10.9534 29.653 10.9822C29.754 11.0109 29.8611 11.0089 29.961 10.9765C30.0608 10.944 30.1489 10.8826 30.2142 10.7998C30.2581 10.7441 30.2905 10.6802 30.3097 10.6118C30.3289 10.5434 30.3344 10.4719 30.3259 10.4013C30.3173 10.3307 30.295 10.2626 30.2601 10.2008C30.2252 10.139 30.1785 10.0848 30.1227 10.0414Z" fill="#D1D1D1"/>
<path d="M27.7016 10.5068C28.0374 10.5068 28.3095 10.2325 28.3095 9.89403C28.3095 9.5556 28.0374 9.28125 27.7016 9.28125C27.3659 9.28125 27.0938 9.5556 27.0938 9.89403C27.0938 10.2325 27.3659 10.5068 27.7016 10.5068Z" fill="#D1D1D1"/>
<path d="M25.5449 10.327C25.9105 10.327 26.2069 10.0282 26.2069 9.65958C26.2069 9.29099 25.9105 8.99219 25.5449 8.99219C25.1792 8.99219 24.8828 9.29099 24.8828 9.65958C24.8828 10.0282 25.1792 10.327 25.5449 10.327Z" fill="#D1D1D1"/>
<path d="M23.3827 10.4957C23.7796 10.4957 24.1013 10.1714 24.1013 9.77129C24.1013 9.37121 23.7796 9.04688 23.3827 9.04688C22.9858 9.04688 22.6641 9.37121 22.6641 9.77129C22.6641 10.1714 22.9858 10.4957 23.3827 10.4957Z" fill="#D1D1D1"/>
<path d="M21.2578 10.9888C21.6806 10.9888 22.0234 10.6433 22.0234 10.2171C22.0234 9.79083 21.6806 9.44531 21.2578 9.44531C20.835 9.44531 20.4922 9.79083 20.4922 10.2171C20.4922 10.6433 20.835 10.9888 21.2578 10.9888Z" fill="#D1D1D1"/>
<path d="M18.7378 11.6218C18.862 11.7187 19.012 11.7763 19.1688 11.7873C19.3255 11.7983 19.482 11.7622 19.6184 11.6836C19.7548 11.6049 19.865 11.4873 19.9351 11.3455C20.0051 11.2038 20.0319 11.0442 20.0121 10.8871C19.9922 10.73 19.9266 10.5824 19.8235 10.4628C19.7204 10.3433 19.5844 10.2573 19.4328 10.2157C19.2812 10.174 19.1208 10.1786 18.9718 10.2289C18.8228 10.2792 18.6919 10.3729 18.5957 10.4981C18.5319 10.5811 18.485 10.676 18.4576 10.7772C18.4302 10.8785 18.4229 10.9843 18.4361 11.0884C18.4493 11.1926 18.4827 11.2931 18.5345 11.3842C18.5862 11.4753 18.6553 11.5552 18.7378 11.6193V11.6218Z" fill="#D1D1D1"/>
<path d="M16.8419 12.7326C16.9698 12.8317 17.1239 12.8905 17.2849 12.9014C17.4459 12.9123 17.6065 12.8748 17.7463 12.7938C17.8862 12.7127 17.9991 12.5917 18.0708 12.446C18.1425 12.3003 18.1697 12.1364 18.149 11.9751C18.1283 11.8138 18.0607 11.6623 17.9546 11.5397C17.8486 11.4172 17.7089 11.329 17.5532 11.2865C17.3974 11.2439 17.2327 11.2488 17.0798 11.3006C16.9268 11.3524 16.7925 11.4487 16.6939 11.5774C16.6282 11.663 16.58 11.7608 16.5519 11.8652C16.5238 11.9697 16.5164 12.0786 16.5302 12.1859C16.5439 12.2932 16.5785 12.3968 16.632 12.4906C16.6855 12.5844 16.7568 12.6666 16.8419 12.7326Z" fill="#D1D1D1"/>
<path d="M15.6539 14.2898C16.11 14.2898 16.4797 13.9171 16.4797 13.4574C16.4797 12.9977 16.11 12.625 15.6539 12.625C15.1978 12.625 14.8281 12.9977 14.8281 13.4574C14.8281 13.9171 15.1978 14.2898 15.6539 14.2898Z" fill="#D1D1D1"/>
<path d="M14.1948 15.9186C14.6562 15.9186 15.0302 15.5416 15.0302 15.0765C15.0302 14.6114 14.6562 14.2344 14.1948 14.2344C13.7334 14.2344 13.3594 14.6114 13.3594 15.0765C13.3594 15.5416 13.7334 15.9186 14.1948 15.9186Z" fill="#D1D1D1"/>
<path d="M13.0055 17.743C13.4615 17.743 13.8312 17.3703 13.8312 16.9105C13.8312 16.4508 13.4615 16.0781 13.0055 16.0781C12.5494 16.0781 12.1797 16.4508 12.1797 16.9105C12.1797 17.3703 12.5494 17.743 13.0055 17.743Z" fill="#D1D1D1"/>
<path d="M12.7612 19.4056C12.8599 19.2766 12.9186 19.1211 12.9296 18.9585C12.9407 18.796 12.9038 18.6338 12.8234 18.4924C12.7431 18.3511 12.6229 18.2369 12.4782 18.1644C12.3335 18.0918 12.1707 18.0641 12.0104 18.0848C11.8501 18.1055 11.6995 18.1736 11.5776 18.2806C11.4557 18.3875 11.368 18.5285 11.3255 18.6857C11.2831 18.8429 11.2879 19.0093 11.3392 19.1638C11.3906 19.3183 11.4862 19.4539 11.614 19.5536C11.6989 19.6199 11.796 19.6686 11.8996 19.6971C12.0033 19.7255 12.1115 19.733 12.218 19.7193C12.3246 19.7055 12.4274 19.6708 12.5206 19.6169C12.6138 19.5631 12.6955 19.4913 12.7612 19.4056Z" fill="#D1D1D1"/>
<path d="M11.5445 21.8127C11.9833 21.8127 12.339 21.4541 12.339 21.0118C12.339 20.5695 11.9833 20.2109 11.5445 20.2109C11.1057 20.2109 10.75 20.5695 10.75 21.0118C10.75 21.4541 11.1057 21.8127 11.5445 21.8127Z" fill="#D1D1D1"/>
<path d="M11.3125 23.9654C11.7353 23.9654 12.078 23.6198 12.078 23.1936C12.078 22.7674 11.7353 22.4219 11.3125 22.4219C10.8896 22.4219 10.5469 22.7674 10.5469 23.1936C10.5469 23.6198 10.8896 23.9654 11.3125 23.9654Z" fill="#D1D1D1"/>
<path d="M11.4218 26.0973C11.8187 26.0973 12.1404 25.7729 12.1404 25.3729C12.1404 24.9728 11.8187 24.6484 11.4218 24.6484C11.0249 24.6484 10.7031 24.9728 10.7031 25.3729C10.7031 25.7729 11.0249 26.0973 11.4218 26.0973Z" fill="#D1D1D1"/>
<path d="M12.2712 26.9827C12.1673 26.902 12.042 26.8542 11.9111 26.8453C11.7803 26.8364 11.6497 26.8668 11.536 26.9326C11.4222 26.9985 11.3304 27.0969 11.2722 27.2153C11.2139 27.3338 11.1918 27.467 11.2086 27.5981C11.2254 27.7293 11.2805 27.8524 11.3667 27.952C11.453 28.0516 11.5666 28.1232 11.6932 28.1578C11.8198 28.1923 11.9537 28.1882 12.0781 28.146C12.2024 28.1038 12.3115 28.0254 12.3916 27.9207C12.4447 27.8514 12.4838 27.7721 12.5065 27.6875C12.5292 27.6029 12.5352 27.5147 12.524 27.4277C12.5128 27.3408 12.4847 27.257 12.4413 27.1811C12.398 27.1051 12.3401 27.0385 12.2712 26.9851V26.9827Z" fill="#D1D1D1"/>
<path d="M12.9994 29.077C12.8729 28.9834 12.7149 28.9441 12.5597 28.9676C12.4046 28.9912 12.2651 29.0757 12.1716 29.2027C12.0781 29.3296 12.0383 29.4888 12.0609 29.6453C12.0834 29.8018 12.1666 29.9429 12.2921 30.0377C12.4176 30.1326 12.5752 30.1735 12.7306 30.1516C12.8859 30.1296 13.0263 30.0465 13.1211 29.9205C13.2158 29.7945 13.2572 29.6358 13.2362 29.4791C13.2152 29.3224 13.1335 29.1804 13.009 29.0842L12.9994 29.077Z" fill="#D1D1D1"/>
<path d="M13.7117 31.9945C14.0056 31.9945 14.2438 31.7544 14.2438 31.4582C14.2438 31.162 14.0056 30.9219 13.7117 30.9219C13.4179 30.9219 13.1797 31.162 13.1797 31.4582C13.1797 31.7544 13.4179 31.9945 13.7117 31.9945Z" fill="#D1D1D1"/>
<path d="M15.0746 33.6094C15.3186 33.6094 15.5164 33.41 15.5164 33.1641C15.5164 32.9181 15.3186 32.7188 15.0746 32.7188C14.8306 32.7188 14.6328 32.9181 14.6328 33.1641C14.6328 33.41 14.8306 33.6094 15.0746 33.6094Z" fill="#D1D1D1"/>
<path d="M16.8938 34.3829C16.8421 34.3423 16.7797 34.3182 16.7144 34.3134C16.6491 34.3086 16.5839 34.3234 16.5269 34.356C16.47 34.3886 16.4239 34.4375 16.3946 34.4965C16.3652 34.5554 16.3538 34.6219 16.3619 34.6874C16.37 34.7529 16.3971 34.8145 16.44 34.8644C16.4828 34.9143 16.5393 34.9503 16.6024 34.9679C16.6655 34.9854 16.7324 34.9837 16.7945 34.963C16.8567 34.9422 16.9113 34.9033 16.9515 34.8513C16.9783 34.8167 16.998 34.7772 17.0095 34.7349C17.0211 34.6926 17.0243 34.6485 17.0189 34.605C17.0135 34.5615 16.9997 34.5195 16.9783 34.4814C16.9568 34.4433 16.9281 34.4098 16.8938 34.3829Z" fill="#D1D1D1"/>
<path d="M33.3301 16.768C33.3581 16.8069 33.3969 16.8365 33.4416 16.8532C33.4863 16.8698 33.5349 16.8727 33.5812 16.8615C33.6275 16.8503 33.6695 16.8255 33.7019 16.7902C33.7342 16.7549 33.7554 16.7107 33.7628 16.6633C33.7703 16.6159 33.7635 16.5673 33.7435 16.5237C33.7236 16.4801 33.6912 16.4434 33.6505 16.4184C33.6099 16.3934 33.5628 16.381 33.5152 16.383C33.4675 16.385 33.4216 16.4011 33.3831 16.4295H33.3747C33.3245 16.4686 33.2917 16.5261 33.2833 16.5895C33.275 16.6529 33.2918 16.717 33.3301 16.768Z" fill="#D1D1D1"/>
<path d="M32.4248 15.6983C32.5989 15.6983 32.7401 15.556 32.7401 15.3804C32.7401 15.2048 32.5989 15.0625 32.4248 15.0625C32.2506 15.0625 32.1094 15.2048 32.1094 15.3804C32.1094 15.556 32.2506 15.6983 32.4248 15.6983Z" fill="#D1D1D1"/>
<path d="M31.1526 14.6863C31.362 14.6863 31.5318 14.5152 31.5318 14.3041C31.5318 14.093 31.362 13.9219 31.1526 13.9219C30.9432 13.9219 30.7734 14.093 30.7734 14.3041C30.7734 14.5152 30.9432 14.6863 31.1526 14.6863Z" fill="#D1D1D1"/>
<path d="M29.3938 13.7116C29.4459 13.7805 29.5172 13.8322 29.5985 13.8603C29.6798 13.8884 29.7675 13.8915 29.8506 13.8693C29.9337 13.8471 30.0083 13.8006 30.0652 13.7356C30.122 13.6706 30.1585 13.5901 30.1699 13.5042C30.1814 13.4183 30.1673 13.331 30.1295 13.2532C30.0917 13.1754 30.0319 13.1106 29.9575 13.0671C29.8832 13.0236 29.7978 13.0032 29.712 13.0087C29.6262 13.0141 29.544 13.0451 29.4756 13.0976C29.4303 13.1325 29.3922 13.1761 29.3635 13.2258C29.3348 13.2756 29.3162 13.3305 29.3086 13.3875C29.301 13.4445 29.3046 13.5025 29.3192 13.5581C29.3338 13.6137 29.3592 13.6659 29.3938 13.7116Z" fill="#D1D1D1"/>
<path d="M27.8316 13.0962C27.8885 13.1714 27.9662 13.2279 28.055 13.2585C28.1437 13.2892 28.2395 13.2926 28.3302 13.2683C28.4209 13.2441 28.5024 13.1933 28.5645 13.1223C28.6265 13.0514 28.6663 12.9635 28.6787 12.8697C28.6912 12.776 28.6758 12.6806 28.6345 12.5957C28.5932 12.5108 28.5278 12.4401 28.4467 12.3927C28.3655 12.3452 28.2722 12.3231 28.1786 12.3291C28.085 12.3351 27.9952 12.3689 27.9206 12.4264C27.8208 12.5033 27.7553 12.6171 27.7386 12.7427C27.7219 12.8683 27.7553 12.9954 27.8316 13.0962Z" fill="#D1D1D1"/>
<path d="M26.2002 12.7157C26.2621 12.7964 26.3462 12.8569 26.4422 12.8895C26.5381 12.9222 26.6414 12.9254 26.7391 12.8989C26.8369 12.8725 26.9247 12.8174 26.9914 12.7407C27.0582 12.6641 27.101 12.5692 27.1144 12.4681C27.1277 12.3669 27.1111 12.2641 27.0666 12.1724C27.0221 12.0808 26.9517 12.0045 26.8642 11.9531C26.7768 11.9017 26.6762 11.8776 26.5752 11.8838C26.4742 11.8899 26.3772 11.926 26.2965 11.9876C26.2426 12.029 26.1974 12.0806 26.1633 12.1396C26.1293 12.1986 26.1072 12.2638 26.0983 12.3315C26.0893 12.3991 26.0937 12.4679 26.1112 12.5338C26.1287 12.5998 26.1589 12.6616 26.2002 12.7157Z" fill="#D1D1D1"/>
<path d="M24.5272 12.5806C24.5934 12.6679 24.6838 12.7335 24.787 12.7691C24.8902 12.8047 25.0015 12.8086 25.1069 12.7804C25.2123 12.7522 25.307 12.6931 25.3791 12.6106C25.4511 12.5282 25.4973 12.426 25.5118 12.317C25.5263 12.2081 25.5084 12.0973 25.4604 11.9986C25.4124 11.8999 25.3364 11.8178 25.2421 11.7626C25.1478 11.7074 25.0394 11.6817 24.9306 11.6886C24.8218 11.6955 24.7174 11.7349 24.6308 11.8016C24.5732 11.8459 24.5249 11.9012 24.4886 11.9643C24.4522 12.0274 24.4286 12.0971 24.4189 12.1695C24.4093 12.2418 24.4139 12.3153 24.4325 12.3859C24.4511 12.4564 24.4833 12.5226 24.5272 12.5806Z" fill="#D1D1D1"/>
<path d="M23.3146 12.9038C23.6264 12.9038 23.8791 12.649 23.8791 12.3347C23.8791 12.0204 23.6264 11.7656 23.3146 11.7656C23.0028 11.7656 22.75 12.0204 22.75 12.3347C22.75 12.649 23.0028 12.9038 23.3146 12.9038Z" fill="#D1D1D1"/>
<path d="M21.2348 13.0137C21.3041 13.1053 21.3988 13.1741 21.5069 13.2115C21.6149 13.2489 21.7316 13.2531 21.842 13.2237C21.9525 13.1942 22.0518 13.1324 22.1274 13.0461C22.2031 12.9598 22.2516 12.8528 22.2669 12.7386C22.2822 12.6245 22.2636 12.5083 22.2134 12.4049C22.1633 12.3014 22.0838 12.2152 21.9851 12.1572C21.8863 12.0993 21.7728 12.0721 21.6587 12.0792C21.5447 12.0863 21.4353 12.1273 21.3444 12.1971C21.2228 12.2905 21.143 12.4287 21.1224 12.5813C21.1019 12.734 21.1423 12.8887 21.2348 13.0113V13.0137Z" fill="#D1D1D1"/>
<path d="M19.6747 13.6052C19.7455 13.699 19.8423 13.7694 19.9529 13.8077C20.0634 13.846 20.1828 13.8504 20.2958 13.8203C20.4088 13.7902 20.5105 13.727 20.5879 13.6386C20.6653 13.5503 20.7149 13.4408 20.7306 13.324C20.7462 13.2073 20.7272 13.0884 20.6759 12.9825C20.6245 12.8767 20.5432 12.7885 20.4421 12.7293C20.3411 12.67 20.2249 12.6423 20.1082 12.6496C19.9915 12.6569 19.8796 12.6989 19.7866 12.7704C19.725 12.8178 19.6733 12.8769 19.6344 12.9445C19.5955 13.012 19.5702 13.0866 19.5599 13.1641C19.5496 13.2415 19.5546 13.3202 19.5745 13.3957C19.5944 13.4711 19.6288 13.5419 19.6759 13.604L19.6747 13.6052Z" fill="#D1D1D1"/>
<path d="M18.2141 14.4161C18.2856 14.5121 18.3836 14.5845 18.4959 14.6244C18.6082 14.6642 18.7297 14.6695 18.845 14.6398C18.9603 14.61 19.0643 14.5464 19.1438 14.4571C19.2232 14.3677 19.2746 14.2566 19.2915 14.1378C19.3083 14.019 19.2898 13.8979 19.2383 13.7897C19.1869 13.6815 19.1047 13.5911 19.0023 13.53C18.8999 13.4688 18.7817 13.4397 18.6629 13.4462C18.544 13.4527 18.4297 13.4947 18.3345 13.5667C18.2068 13.6632 18.1224 13.8069 18.0998 13.9662C18.0772 14.1255 18.1184 14.2873 18.2141 14.4161Z" fill="#D1D1D1"/>
<path d="M17.7521 15.5452C17.8473 15.4732 17.9192 15.3744 17.9587 15.2612C17.9982 15.148 18.0035 15.0255 17.974 14.9093C17.9444 14.793 17.8814 14.6882 17.7927 14.6081C17.7041 14.528 17.5939 14.4762 17.4761 14.4592C17.3582 14.4423 17.238 14.4609 17.1307 14.5128C17.0234 14.5647 16.9337 14.6475 16.873 14.7507C16.8124 14.854 16.7835 14.973 16.79 15.0929C16.7964 15.2127 16.838 15.3279 16.9094 15.4239C17.0052 15.5526 17.1478 15.6377 17.3058 15.6605C17.4638 15.6832 17.6244 15.6418 17.7521 15.5452Z" fill="#D1D1D1"/>
<path d="M16.5894 16.7305C16.6819 16.659 16.7513 16.5615 16.7889 16.4502C16.8264 16.339 16.8304 16.219 16.8004 16.1054C16.7703 15.9919 16.7076 15.8899 16.6201 15.8122C16.5326 15.7346 16.4242 15.6849 16.3086 15.6693C16.1931 15.6537 16.0756 15.673 15.9709 15.7247C15.8662 15.7765 15.7791 15.8583 15.7205 15.9599C15.6619 16.0615 15.6345 16.1783 15.6418 16.2956C15.649 16.4129 15.6906 16.5254 15.7612 16.6189C15.8082 16.6811 15.867 16.7334 15.9341 16.7727C16.0012 16.812 16.0753 16.8376 16.1523 16.848C16.2292 16.8584 16.3074 16.8533 16.3824 16.8332C16.4574 16.813 16.5278 16.7781 16.5894 16.7305Z" fill="#D1D1D1"/>
<path d="M15.2731 18.1961C15.5922 18.1961 15.8509 17.9354 15.8509 17.6137C15.8509 17.292 15.5922 17.0312 15.2731 17.0312C14.954 17.0312 14.6953 17.292 14.6953 17.6137C14.6953 17.9354 14.954 18.1961 15.2731 18.1961Z" fill="#D1D1D1"/>
<path d="M14.8687 19.5522C14.9573 19.4839 15.0238 19.3905 15.0598 19.284C15.0959 19.1775 15.0998 19.0627 15.0711 18.9539C15.0423 18.8452 14.9823 18.7475 14.8985 18.6732C14.8147 18.5988 14.711 18.5512 14.6003 18.5363C14.4897 18.5214 14.3772 18.5398 14.277 18.5894C14.1767 18.6389 14.0933 18.7173 14.0373 18.8146C13.9812 18.9119 13.9551 19.0237 13.962 19.136C13.969 19.2483 14.0089 19.356 14.0766 19.4455C14.1215 19.5051 14.1777 19.5552 14.2419 19.5928C14.306 19.6305 14.377 19.655 14.4506 19.6649C14.5242 19.6749 14.599 19.67 14.6708 19.6507C14.7425 19.6313 14.8098 19.5979 14.8687 19.5522Z" fill="#D1D1D1"/>
<path d="M14.443 20.344C14.377 20.2566 14.2867 20.1908 14.1835 20.1551C14.0804 20.1194 13.9691 20.1154 13.8637 20.1434C13.7583 20.1715 13.6635 20.2304 13.5913 20.3128C13.5191 20.3951 13.4728 20.4972 13.4581 20.6061C13.4435 20.715 13.4612 20.8259 13.509 20.9246C13.5569 21.0234 13.6327 21.1056 13.7269 21.161C13.8211 21.2163 13.9295 21.2422 14.0383 21.2355C14.1471 21.2287 14.2515 21.1896 14.3383 21.123C14.4544 21.0335 14.5306 20.9013 14.5503 20.7553C14.5699 20.6093 14.5313 20.4614 14.443 20.344Z" fill="#D1D1D1"/>
<path d="M14.1325 22.0149C14.0706 21.9337 13.9863 21.8729 13.8901 21.84C13.7939 21.8071 13.6902 21.8036 13.5921 21.8301C13.494 21.8565 13.4059 21.9117 13.3389 21.9886C13.2718 22.0655 13.2289 22.1607 13.2154 22.2622C13.202 22.3636 13.2187 22.4668 13.2634 22.5588C13.3081 22.6507 13.3789 22.7272 13.4667 22.7786C13.5545 22.8301 13.6554 22.8541 13.7568 22.8478C13.8582 22.8414 13.9554 22.805 14.0362 22.743C14.0901 22.7016 14.1353 22.65 14.1693 22.591C14.2034 22.532 14.2255 22.4668 14.2344 22.3991C14.2434 22.3315 14.239 22.2627 14.2215 22.1968C14.204 22.1308 14.1738 22.069 14.1325 22.0149Z" fill="#D1D1D1"/>
<path d="M14.0706 23.7043C14.0138 23.6291 13.9361 23.5724 13.8474 23.5417C13.7587 23.5109 13.6629 23.5073 13.5722 23.5314C13.4815 23.5555 13.3999 23.6061 13.3378 23.677C13.2756 23.7478 13.2357 23.8356 13.2231 23.9294C13.2104 24.0231 13.2257 24.1184 13.2668 24.2034C13.308 24.2884 13.3732 24.3592 13.4542 24.4068C13.5353 24.4544 13.6285 24.4767 13.7222 24.4709C13.8158 24.4651 13.9056 24.4314 13.9803 24.3741C14.0803 24.2974 14.1461 24.1837 14.163 24.0581C14.1799 23.9325 14.1467 23.8052 14.0706 23.7043Z" fill="#D1D1D1"/>
<path d="M14.2511 25.3761C14.1988 25.307 14.1274 25.255 14.0458 25.2269C13.9643 25.1987 13.8763 25.1955 13.7929 25.2178C13.7096 25.24 13.6347 25.2867 13.5776 25.3519C13.5206 25.4171 13.4841 25.4979 13.4726 25.584C13.4612 25.6701 13.4753 25.7578 13.5133 25.8358C13.5512 25.9138 13.6113 25.9787 13.6859 26.0224C13.7604 26.066 13.8462 26.0863 13.9322 26.0808C14.0183 26.0752 14.1007 26.0441 14.1692 25.9913C14.2147 25.9565 14.2529 25.913 14.2817 25.8633C14.3105 25.8136 14.3292 25.7587 14.3369 25.7017C14.3447 25.6446 14.3412 25.5867 14.3266 25.531C14.3121 25.4753 14.2868 25.4231 14.2523 25.3773L14.2511 25.3761Z" fill="#D1D1D1"/>
<path d="M14.6623 27.0085C14.6168 26.9487 14.5548 26.9039 14.4841 26.8797C14.4134 26.8554 14.3371 26.8528 14.2649 26.8722C14.1928 26.8917 14.1279 26.9322 14.0786 26.9887C14.0292 27.0452 13.9976 27.1152 13.9877 27.1899C13.9778 27.2645 13.9901 27.3404 14.0229 27.408C14.0558 27.4756 14.1078 27.5319 14.1724 27.5698C14.2369 27.6076 14.3112 27.6253 14.3857 27.6207C14.4603 27.616 14.5318 27.5892 14.5912 27.5436C14.631 27.5133 14.6644 27.4754 14.6895 27.4321C14.7146 27.3887 14.7309 27.3407 14.7375 27.291C14.7441 27.2412 14.7408 27.1906 14.7279 27.1421C14.715 27.0937 14.6927 27.0482 14.6623 27.0085Z" fill="#D1D1D1"/>
<path d="M15.2981 28.5619C15.2604 28.5121 15.2089 28.4747 15.1501 28.4545C15.0913 28.4343 15.0279 28.432 14.9678 28.4481C14.9078 28.4642 14.8538 28.4979 14.8128 28.5449C14.7717 28.5919 14.7454 28.6501 14.7372 28.7122C14.7289 28.7743 14.7391 28.8374 14.7665 28.8936C14.7938 28.9499 14.8371 28.9967 14.8908 29.0281C14.9445 29.0595 15.0063 29.0742 15.0683 29.0703C15.1303 29.0663 15.1898 29.044 15.2392 29.006C15.272 28.9807 15.2995 28.9492 15.3203 28.9132C15.341 28.8772 15.3545 28.8375 15.36 28.7962C15.3654 28.755 15.3628 28.7131 15.3522 28.6728C15.3416 28.6326 15.3232 28.5949 15.2981 28.5619Z" fill="#D1D1D1"/>
<path d="M15.9469 30.3819C16.0772 30.3819 16.1828 30.2754 16.1828 30.1441C16.1828 30.0127 16.0772 29.9062 15.9469 29.9062C15.8166 29.9062 15.7109 30.0127 15.7109 30.1441C15.7109 30.2754 15.8166 30.3819 15.9469 30.3819Z" fill="#D1D1D1"/>
<path d="M31.425 19.8328C31.4364 19.8576 31.4547 19.8785 31.4777 19.8929C31.5007 19.9074 31.5273 19.9148 31.5544 19.9143C31.5815 19.9138 31.6078 19.9053 31.6302 19.89C31.6526 19.8746 31.6701 19.853 31.6805 19.8278C31.691 19.8026 31.6939 19.7749 31.689 19.7481C31.6841 19.7212 31.6716 19.6964 31.6529 19.6766C31.6342 19.6568 31.6103 19.6429 31.5839 19.6366C31.5576 19.6303 31.53 19.6319 31.5045 19.6411C31.4868 19.6484 31.4706 19.6592 31.4571 19.6728C31.4435 19.6864 31.4327 19.7026 31.4253 19.7204C31.4179 19.7382 31.4141 19.7573 31.4141 19.7766C31.414 19.7959 31.4177 19.815 31.425 19.8328Z" fill="#D1D1D1"/>
<path d="M30.8815 18.8296C30.896 18.8648 30.9206 18.8949 30.9521 18.916C30.9836 18.9371 31.0206 18.9484 31.0584 18.9484C31.0963 18.9483 31.1333 18.937 31.1647 18.9158C31.1961 18.8945 31.2206 18.8644 31.2351 18.8292C31.2495 18.7939 31.2533 18.7551 31.2459 18.7177C31.2385 18.6803 31.2203 18.646 31.1935 18.619C31.1668 18.592 31.1327 18.5737 31.0956 18.5662C31.0585 18.5588 31.02 18.5626 30.985 18.5772C30.9383 18.597 30.9012 18.6347 30.8818 18.6819C30.8624 18.7292 30.8623 18.7822 30.8815 18.8296Z" fill="#D1D1D1"/>
<path d="M30.2132 17.8987C30.237 17.955 30.282 17.9995 30.3383 18.0224C30.3946 18.0453 30.4577 18.0446 30.5135 18.0207C30.5694 17.9967 30.6135 17.9513 30.6362 17.8946C30.6589 17.8378 30.6583 17.7742 30.6345 17.7179C30.6104 17.6617 30.5652 17.6174 30.5088 17.5947C30.4525 17.572 30.3895 17.5726 30.3336 17.5966C30.2781 17.6209 30.2344 17.6662 30.2119 17.7228C30.1893 17.7793 30.1898 17.8425 30.2132 17.8987Z" fill="#D1D1D1"/>
<path d="M29.4249 17.0647C29.4447 17.1139 29.4786 17.1559 29.5222 17.1856C29.5658 17.2154 29.6172 17.2314 29.6698 17.2316C29.7224 17.2319 29.7739 17.2165 29.8178 17.1872C29.8618 17.158 29.8961 17.1163 29.9165 17.0674C29.9368 17.0184 29.9424 16.9645 29.9324 16.9125C29.9223 16.8604 29.8972 16.8125 29.8602 16.7748C29.8232 16.7371 29.7759 16.7113 29.7243 16.7007C29.6727 16.6901 29.6192 16.6952 29.5705 16.7153C29.5055 16.7421 29.4538 16.7939 29.4267 16.8592C29.3997 16.9245 29.3994 16.998 29.4261 17.0635L29.4249 17.0647Z" fill="#D1D1D1"/>
<path d="M28.545 16.3401C28.5669 16.3933 28.6039 16.4387 28.6513 16.4707C28.6987 16.5028 28.7545 16.5199 28.8116 16.5199C28.8687 16.52 28.9245 16.5031 28.972 16.4712C29.0195 16.4393 29.0566 16.394 29.0786 16.3409C29.1006 16.2878 29.1065 16.2293 29.0955 16.1728C29.0845 16.1163 29.0572 16.0644 29.017 16.0236C28.9768 15.9827 28.9255 15.9548 28.8696 15.9433C28.8136 15.9319 28.7556 15.9374 28.7027 15.9591C28.6318 15.9887 28.5754 16.0454 28.5458 16.1168C28.5162 16.1882 28.516 16.2685 28.545 16.3401Z" fill="#D1D1D1"/>
<path d="M27.5625 15.7307C27.5859 15.7881 27.6258 15.8373 27.6769 15.872C27.7281 15.9067 27.7884 15.9253 27.85 15.9254C27.9117 15.9256 27.972 15.9073 28.0234 15.8729C28.0747 15.8385 28.1148 15.7895 28.1386 15.7322C28.1623 15.6748 28.1686 15.6116 28.1568 15.5506C28.1449 15.4896 28.1153 15.4335 28.0718 15.3895C28.0283 15.3454 27.9728 15.3153 27.9124 15.3031C27.8519 15.2908 27.7892 15.2969 27.7322 15.3205C27.6558 15.3522 27.5949 15.4132 27.5631 15.4902C27.5313 15.5671 27.531 15.6536 27.5625 15.7307Z" fill="#D1D1D1"/>
<path d="M26.8268 15.4872C27.0116 15.4872 27.1615 15.3361 27.1615 15.1498C27.1615 14.9635 27.0116 14.8125 26.8268 14.8125C26.642 14.8125 26.4922 14.9635 26.4922 15.1498C26.4922 15.3361 26.642 15.4872 26.8268 15.4872Z" fill="#D1D1D1"/>
<path d="M25.4251 14.9483C25.4515 15.0129 25.4962 15.0681 25.5536 15.1071C25.6111 15.146 25.6788 15.1669 25.748 15.1672C25.8173 15.1674 25.885 15.1469 25.9427 15.1083C26.0004 15.0697 26.0455 15.0147 26.0722 14.9503C26.099 14.8859 26.1062 14.815 26.0929 14.7465C26.0797 14.678 26.0466 14.6149 25.9978 14.5654C25.949 14.5158 25.8868 14.4819 25.8189 14.468C25.751 14.4541 25.6806 14.4608 25.6165 14.4872C25.5738 14.5046 25.5349 14.5304 25.5021 14.5631C25.4693 14.5958 25.4433 14.6347 25.4255 14.6776C25.4077 14.7204 25.3985 14.7664 25.3984 14.8129C25.3984 14.8594 25.4074 14.9054 25.4251 14.9483Z" fill="#D1D1D1"/>
<path d="M24.2993 14.7728C24.3258 14.8396 24.3715 14.897 24.4304 14.9377C24.4893 14.9784 24.5588 15.0006 24.6303 15.0015C24.7017 15.0023 24.7718 14.9818 24.8316 14.9425C24.8915 14.9032 24.9384 14.8469 24.9665 14.7808C24.9946 14.7146 25.0027 14.6415 24.9896 14.5707C24.9765 14.4999 24.9428 14.4346 24.8929 14.3831C24.843 14.3316 24.7791 14.2962 24.7092 14.2813C24.6393 14.2664 24.5666 14.2728 24.5003 14.2995C24.4114 14.3354 24.3403 14.4054 24.3026 14.4942C24.2649 14.5829 24.2637 14.6831 24.2993 14.7728Z" fill="#D1D1D1"/>
<path d="M23.1673 14.7559C23.2072 14.8397 23.2783 14.9043 23.3652 14.9356C23.4521 14.9669 23.5478 14.9624 23.6314 14.923C23.715 14.8837 23.7798 14.8126 23.8117 14.7254C23.8437 14.6381 23.8402 14.5417 23.802 14.457C23.7638 14.3723 23.694 14.3062 23.6078 14.2731C23.5216 14.24 23.4259 14.2425 23.3415 14.2802C23.2571 14.3178 23.1908 14.3874 23.1571 14.474C23.1233 14.5606 23.1248 14.6571 23.1613 14.7425L23.1673 14.7559Z" fill="#D1D1D1"/>
<path d="M22.0327 14.8872C22.0595 14.9567 22.1061 15.0167 22.1667 15.0594C22.2273 15.1021 22.2992 15.1258 22.3731 15.1273C22.4471 15.1288 22.5198 15.1081 22.5821 15.0678C22.6443 15.0276 22.6933 14.9696 22.7228 14.9012C22.7523 14.8328 22.761 14.7572 22.7478 14.6838C22.7345 14.6105 22.7 14.5427 22.6485 14.4892C22.5969 14.4357 22.5308 14.3988 22.4585 14.3833C22.3862 14.3677 22.3109 14.3742 22.2422 14.4018C22.1511 14.4389 22.0781 14.5105 22.0389 14.6013C21.9997 14.6921 21.9975 14.7948 22.0327 14.8872Z" fill="#D1D1D1"/>
<path d="M21.2866 15.4231C21.4967 15.4231 21.667 15.2515 21.667 15.0397C21.667 14.8279 21.4967 14.6562 21.2866 14.6562C21.0766 14.6562 20.9062 14.8279 20.9062 15.0397C20.9062 15.2515 21.0766 15.4231 21.2866 15.4231Z" fill="#D1D1D1"/>
<path d="M20.2398 15.8528C20.4498 15.8528 20.6201 15.6812 20.6201 15.4694C20.6201 15.2576 20.4498 15.0859 20.2398 15.0859C20.0297 15.0859 19.8594 15.2576 19.8594 15.4694C19.8594 15.6812 20.0297 15.8528 20.2398 15.8528Z" fill="#D1D1D1"/>
<path d="M19.2638 16.4164C19.4699 16.4164 19.637 16.248 19.637 16.0402C19.637 15.8325 19.4699 15.6641 19.2638 15.6641C19.0577 15.6641 18.8906 15.8325 18.8906 16.0402C18.8906 16.248 19.0577 16.4164 19.2638 16.4164Z" fill="#D1D1D1"/>
<path d="M18.5175 17.0777C18.6007 17.0375 18.6647 16.9658 18.6958 16.8782C18.7268 16.7906 18.7223 16.6942 18.6833 16.6099C18.6442 16.5256 18.5738 16.4603 18.4872 16.4281C18.4006 16.3959 18.305 16.3994 18.221 16.4379C18.137 16.4764 18.0714 16.5467 18.0386 16.6337C18.0057 16.7206 18.0082 16.8171 18.0455 16.9021C18.0828 16.9872 18.1519 17.054 18.2378 17.088C18.3237 17.122 18.4194 17.1205 18.5042 17.0838L18.5175 17.0777Z" fill="#D1D1D1"/>
<path d="M17.7219 17.8895C17.7882 17.8627 17.8452 17.8167 17.8855 17.7574C17.9259 17.698 17.9479 17.6279 17.9488 17.5559C17.9496 17.4839 17.9293 17.4132 17.8903 17.3529C17.8513 17.2926 17.7955 17.2452 17.7298 17.2169C17.6642 17.1885 17.5917 17.1805 17.5214 17.1937C17.4512 17.2069 17.3865 17.2408 17.3354 17.2911C17.2843 17.3414 17.2491 17.4058 17.2344 17.4763C17.2196 17.5467 17.2259 17.62 17.2524 17.6868C17.288 17.7765 17.3575 17.8482 17.4455 17.8862C17.5336 17.9242 17.633 17.9254 17.7219 17.8895Z" fill="#D1D1D1"/>
<path d="M17.2444 18.3434C17.218 18.2789 17.1732 18.2237 17.1156 18.1848C17.0581 18.1459 16.9904 18.1251 16.9211 18.125C16.8518 18.1249 16.784 18.1455 16.7264 18.1842C16.6687 18.223 16.6238 18.2781 16.5972 18.3425C16.5706 18.407 16.5635 18.478 16.577 18.5465C16.5904 18.615 16.6237 18.678 16.6726 18.7275C16.7215 18.7769 16.7839 18.8106 16.8518 18.8243C16.9197 18.8381 16.9902 18.8312 17.0542 18.8045C17.0967 18.7868 17.1354 18.7609 17.168 18.7281C17.2005 18.6954 17.2264 18.6565 17.2441 18.6137C17.2617 18.5709 17.2708 18.525 17.2709 18.4786C17.271 18.4322 17.262 18.3863 17.2444 18.3434Z" fill="#D1D1D1"/>
<path d="M16.6915 19.3508C16.6665 19.289 16.6239 19.236 16.5691 19.1986C16.5142 19.1612 16.4496 19.141 16.3834 19.1406C16.3171 19.1403 16.2523 19.1597 16.197 19.1965C16.1418 19.2333 16.0986 19.2858 16.073 19.3474C16.0473 19.4089 16.0404 19.4767 16.053 19.5423C16.0656 19.6078 16.0973 19.6681 16.1439 19.7155C16.1905 19.7629 16.2501 19.7953 16.315 19.8086C16.3799 19.8218 16.4472 19.8154 16.5085 19.7901C16.549 19.7734 16.5859 19.7489 16.617 19.7178C16.6481 19.6868 16.6728 19.6498 16.6897 19.6091C16.7066 19.5684 16.7153 19.5247 16.7154 19.4806C16.7155 19.4365 16.707 19.3928 16.6903 19.352L16.6915 19.3508Z" fill="#D1D1D1"/>
<path d="M16.2722 20.4218C16.2488 20.3643 16.2091 20.315 16.158 20.2803C16.1069 20.2455 16.0467 20.2268 15.9851 20.2266C15.9234 20.2263 15.8631 20.2444 15.8117 20.2787C15.7603 20.313 15.7201 20.3618 15.6962 20.4191C15.6723 20.4764 15.6658 20.5395 15.6775 20.6005C15.6893 20.6615 15.7186 20.7177 15.762 20.7618C15.8053 20.806 15.8607 20.8363 15.9211 20.8487C15.9815 20.8612 16.0442 20.8553 16.1012 20.8319C16.1773 20.8004 16.2379 20.7398 16.2697 20.6634C16.3015 20.587 16.302 20.501 16.271 20.4242L16.2722 20.4218Z" fill="#D1D1D1"/>
<path d="M16.0011 21.5392C15.9793 21.486 15.9423 21.4406 15.8949 21.4086C15.8475 21.3766 15.7917 21.3595 15.7346 21.3594C15.6775 21.3593 15.6217 21.3763 15.5742 21.4081C15.5267 21.44 15.4896 21.4854 15.4676 21.5385C15.4456 21.5916 15.4397 21.65 15.4507 21.7065C15.4616 21.763 15.489 21.8149 15.5292 21.8557C15.5694 21.8966 15.6207 21.9245 15.6766 21.936C15.7326 21.9474 15.7906 21.942 15.8434 21.9202C15.9144 21.8906 15.9708 21.834 16.0004 21.7625C16.0299 21.6911 16.0302 21.6108 16.0011 21.5392Z" fill="#D1D1D1"/>
<path d="M15.8796 22.6825C15.8597 22.6334 15.8258 22.5913 15.7822 22.5616C15.7386 22.5319 15.6873 22.5159 15.6346 22.5156C15.582 22.5153 15.5305 22.5308 15.4866 22.5601C15.4427 22.5893 15.4083 22.631 15.388 22.6799C15.3676 22.7288 15.362 22.7827 15.372 22.8348C15.3821 22.8869 15.4072 22.9348 15.4442 22.9725C15.4812 23.0102 15.5285 23.036 15.5801 23.0466C15.6317 23.0572 15.6852 23.0521 15.7339 23.032C15.7992 23.0051 15.8512 22.9532 15.8785 22.8877C15.9058 22.8221 15.9062 22.7484 15.8796 22.6825Z" fill="#D1D1D1"/>
<path d="M15.9001 23.8278C15.8824 23.7858 15.8527 23.7501 15.8149 23.7251C15.777 23.7001 15.7326 23.6871 15.6873 23.6875C15.6421 23.688 15.598 23.702 15.5606 23.7277C15.5232 23.7534 15.4943 23.7898 15.4774 23.8321C15.4605 23.8745 15.4565 23.9209 15.4658 23.9655C15.4752 24.0102 15.4974 24.0511 15.5298 24.0829C15.5622 24.1148 15.6032 24.1363 15.6477 24.1447C15.6922 24.1531 15.7381 24.1479 15.7797 24.13C15.8073 24.1182 15.8322 24.1011 15.8531 24.0795C15.8741 24.058 15.8906 24.0326 15.9018 24.0046C15.913 23.9767 15.9186 23.9468 15.9183 23.9167C15.918 23.8865 15.9118 23.8568 15.9001 23.829V23.8278Z" fill="#D1D1D1"/>
<path d="M15.8957 25.232C16.0021 25.232 16.0883 25.1451 16.0883 25.0379C16.0883 24.9307 16.0021 24.8438 15.8957 24.8438C15.7894 24.8438 15.7031 24.9307 15.7031 25.0379C15.7031 25.1451 15.7894 25.232 15.8957 25.232Z" fill="#D1D1D1"/>
<path d="M16.3876 26.0594C16.3731 26.0237 16.3453 25.9953 16.3101 25.9803C16.2749 25.9652 16.2352 25.9649 16.1998 25.9793C16.1821 25.9866 16.166 25.9974 16.1524 26.011C16.1388 26.0246 16.128 26.0408 16.1206 26.0586C16.1133 26.0764 16.1094 26.0955 16.1094 26.1148C16.1093 26.1341 16.113 26.1532 16.1203 26.171C16.1369 26.2039 16.1653 26.2293 16.1996 26.2421C16.2339 26.2549 16.2718 26.2542 16.3057 26.2401C16.3395 26.2261 16.3669 26.1996 16.3823 26.1662C16.3977 26.1327 16.4 26.0945 16.3888 26.0594H16.3876Z" fill="#D1D1D1"/>
</g>
<defs>
<clipPath id="clip0_15089_896">
<rect width="106" height="46" fill="white"/>
</clipPath>
</defs>
</svg>
